<?xml version="1.0" encoding="UTF-8"?>
<svg id="Layer_2" data-name="Layer 2" xmlns="http://www.w3.org/2000/svg" viewBox="0 0 286.54 624.07">
  <defs>
    <style>
      .cls-1 {
        fill: #fff;
      }

      .cls-2 {
        fill: #d6b098;
      }

      .cls-3 {
        fill: #8b7981;
        stroke: #625561;
      }

      .cls-3, .cls-4, .cls-5, .cls-6, .cls-7, .cls-8, .cls-9, .cls-10 {
        stroke-miterlimit: 10;
      }

      .cls-11 {
        fill: #c65265;
      }

      .cls-4 {
        fill: #813e3f;
      }

      .cls-4, .cls-7 {
        stroke: #63473d;
      }

      .cls-5 {
        fill: #625561;
        stroke: #231f20;
      }

      .cls-6 {
        fill: #f7d1b3;
        stroke: #f4beaa;
      }

      .cls-7 {
        fill: #78413c;
      }

      .cls-8 {
        stroke: #9c9ece;
      }

      .cls-8, .cls-10 {
        fill: #d9afd2;
      }

      .cls-9 {
        fill: #df7a8c;
        stroke: #f1a59e;
      }

      .cls-10 {
        stroke: #ae84bb;
      }
    </style>
  </defs>
  <g id="Body">
    <path id="Hair_-_back" data-name="Hair - back" class="cls-3" d="m144.81,4.76c-20.43-.71-34.61,8.06-42.06,27.1-3.74,9.56-9.43,35.99-10.38,46.22-4.52,48.98-13.7,79.1-26.3,126.64-4.74,17.89-9.61,37.31-2.56,54.42.35-2.42.99-4.8,1.89-7.08-.17,3.69,1.27,7.43,3.86,10.06.46-1.72.92-3.43,1.38-5.15.91,5.85,6.14,10.27,11.8,12.01s11.72,1.33,17.62.89c19.84-1.46,39.69-2.92,59.53-4.38,4.21-.31,8.53-.65,12.37-2.43s7.13-5.35,7.34-9.57c1.13,2.75,1.34,5.87.6,8.75,2.52-1.97,4.79-4.27,6.73-6.82-.05,2.41-.09,4.82-.14,7.23,6.26-10.83,12.69-22.24,13.08-34.74.34-10.87-3.94-21.27-6.52-31.83-5.2-21.25-3.57-43.61-7.58-65.11-4.3-23.06-8.56-38.96-2.12-61.52,3.05-10.67,1.89-24.25.78-35.3-.84-8.33-4.72-19.72-12.3-23.28-8.87-4.17-19.96-8.55-27.01-6.12Z"/>
    <path id="Left_hand_back" data-name="Left hand back" class="cls-2" d="m9.12,305.52c-2.71,6.88-5.44,13.84-6.38,21.17-.23,1.77-.34,3.59.03,5.33.56,2.57,2.14,4.79,3.69,6.92,1.22,1.68,2.48,3.4,4.26,4.46,1.63-3.81-.25-8.16-2.29-11.77,1.72,3.65,5.24,6.4,9.21,7.18.56-2.02-.48-4.14-1.83-5.74s-3.05-2.89-4.23-4.62c2.1,1.19,4.32,2.16,6.62,2.89.52.17,1.09.32,1.61.13s.88-.86.67-1.37c-.9-1.89-2.45-3.46-4.32-4.39-.31-.15-.63-.3-.85-.56-.26-.31-.32-.73-.38-1.12-.55-3.92-.36-8.24-.17-12.19s1.68-7.61,3.96-10.84c-3.66.33-8.76,2.36-9.61,4.52Z"/>
    <path id="Body-2" data-name="Body" class="cls-6" d="m269.02,600.37c-14.83-10.03-17.35-31.4-30.07-43.84-4.31-12.2-8.62-24.4-12.93-36.6-3.45-9.77-6.9-19.54-9.99-29.43-7.07-22.65-12.23-45.87-16.29-69.25-6.26-35.99-9.94-72.38-14.73-108.59-1.22-9.23-2.53-18.51-5.82-27.36-4.03-18.72-11.74-36.63-22.56-52.42-1.52-2.22-3.14-4.49-3.63-7.13-.86-4.67,1.96-9.13,4.54-13.12,7.51-11.61,13.98-23.9,19.23-36.47,6.42,3.19,10.48,9.59,15.1,15.07,7.68,9.12,17.67,16.29,28.77,20.65,3.46-5.33,6.93-10.67,10.06-16.2,7.23-12.76,12.71-26.6,20.08-38.91-.29-.25-.58-.5-.87-.74-3.87-3.34-6.89-7.65-11.08-10.64-.25-.18-.51-.34-.76-.51-3.65,10.18-10.56,19.2-19.54,25.25-2.89,1.95-6.14,3.77-7.65,6.91-.73-3.14-2.19-6.11-4.24-8.59-2.15-2.6-4.89-4.65-7.1-7.2-6.86-7.94-7.86-19.96-15.49-27.16-6.96-6.56-17.7-7.44-24.99-12.78-1.91-1.05-3.93-2.22-4.87-4.18-.55-1.15-.67-2.46-.77-3.73-.07-.88,1-8.15,1.49-12.41-5.83-1.24-11.06-1.62-16.41-4.29-3.82-1.91-9.06-6.71-12.9-8.45,3.09,4.73,1.04,18.23-2.67,22.43-3.94,4.47-9.9,6.56-15.72,7.81-5.82,1.25-11.85,1.86-17.34,4.16-11.9,4.98-19.36,17.06-23.49,29.28-4.09,12.09-5.73,24.93-10.16,36.9-1.17.96-2.25,2.04-3.26,3.18-15.85,17.93-16.51,44.61-27.94,65.63-3.81,7-8.8,13.33-12.2,20.53-3.35,7.08-5.08,14.8-6.79,22.45-3.12,14-6.26,28.23-5.38,42.55,5.95-5.16,7.82-29.4,14.18-34.04,2.29-1.67,3.59,4.89,5.02,9.11,1.22,3.59-.42,11.28,3.01,12.51,4.6-11.52,9.29-23.73,7.43-36-.44-2.88-1.24-5.79-.79-8.67.52-3.37,2.66-6.23,4.74-8.93,6.02-7.84,12.03-15.68,18.05-23.52,4.19-5.46,8.42-10.98,11.25-17.26,1.99-4.42,7.02-27.42,7.68-28.26,11.9-15.23,7.59-17.12,18.37-33.16,0,23.96,3.41,44.53-3.28,68.02-6.08,21.35-15.75,41.72-19.67,63.57-5.48,30.52.56,61.8,6.82,92.79,5.39,22.54-1.39,46.02-1.94,69.2-.8,33.75,11.7,66.82,9.76,101.31-4.1,9.13-8.21,18.26-12.31,27.39-.93,2.06-1.86,4.14-3.25,5.93-3.7,4.78-9.99,6.76-14.41,10.89-.55.51-1.09,1.11-1.17,1.85-.12,1.19.97,2.12,1.99,2.74,6.28,3.8,13.93,4.38,21.26,4.86,2.87.19,5.95.33,8.43-1.15,2.31-1.38,3.63-3.9,5.05-6.19,3.2-5.14,7.44-9.64,12.39-13.12,1.13-.8,2.36-1.6,2.96-2.85.66-1.36.45-2.96.19-4.45-1.62-9.18-4.73-18.1-9.11-25.39,1.16-16.48,2.35-33.1,6.85-48.99,3.27-11.56,8.31-22.83,8.77-34.83.64-16.46-7.4-32.19-8.29-47.65,10.58-36.04,17.6-73.12,20.93-110.53,3.03.3,6.17-.88,8.24-3.11,2.97,31.35,17.23,60.36,31.2,88.58,3.63,7.34,7.3,14.8,8.74,22.86,2.37,13.22-1.32,27.64,4.44,39.77,3.55,7.49,10.21,12.93,15.98,18.88,21.52,22.14,32.15,54.39,28.01,84.98-.29,2.13-.61,4.44.47,6.3.94,1.61,2.72,2.49,4.39,3.32,11.7,5.83,22.45,13.57,31.71,22.81,1.67,1.67,3.4,3.45,5.66,4.14,1.85.56,3.83.32,5.75.08,6.59-.84,13.18-1.68,19.76-2.53-2.06-7.22-10.65-9.82-16.88-14.03Z"/>
    <path id="Hand_-_back" data-name="Hand - back" class="cls-6" d="m238.07,144.86c.78-2.43,1.12-5.19,1.79-7.7.1-.35-3.73-2.62-6.79-7.33-1.25-1.93-1.54-6.47-1.7-8.76-.23-3.1-.1-5.57-.32-8.67-.14-2-1.13-3.84-2.1-5.59-1.8-3.27-2.6-5.53-4.4-8.8,1.88-.19,4.01-2.26,6.39-1.53,2,.61,3.2,2.66,3.81,4.66s.85,4.14,1.85,5.97c1.87,3.45,5.92,5.03,8.67,7.82,2.86,2.9,4.2,6.99,6.76,10.17,2.54,3.15,6.19,5.3,8.56,8.59,1.4,1.94,2.29,4.19,3.08,6.45.12.35.25.72.22,1.09-.06.8-.76,1.37-1.39,1.86-5.8,4.47-9.06,10.5-13.48,16.7-4.52-4.39-8.42-9.59-10.94-14.92Z"/>
    <path id="Mic" class="cls-5" d="m247.79,86.36c1.96-2.04,4.04-4.33,4.22-7.15.08-1.21-.22-2.42-.56-3.59-1.25-4.28-3.16-8.37-5.64-12.08-2.23-3.33-5.08-6.46-8.83-7.89-4.87-1.86-10.53-.47-14.8,2.51s-7.34,7.37-9.94,11.89c-.48.83-.95,1.71-1.01,2.67-.04.8.22,1.59.49,2.34,2.36,6.58,5.96,12.71,10.55,17.98,1.53,1.76,3.23,3.46,5.38,4.36s4.85.82,6.58-.73c3.15,8,7.07,15.71,11.69,22.96,6.61,10.38,14.67,19.88,20.02,30.96.28.59.59,1.21,1.14,1.57.9.58,2.08.24,3.07-.17,4.04-1.68,7.72-4.25,10.69-7.47-4.22-7.15-8.43-14.3-12.65-21.44-1.99-3.38-3.99-6.77-5.72-10.29-4.5-9.18-7.34-19.57-14.68-26.43Z"/>
    <path id="Fingers" class="cls-6" d="m272.05,128.32c1.85.5,3.58-1.84,3.14-3.82s-2.36-3.26-4.26-3.46c1.46-1.3,1.97-3.7,1.16-5.54s-2.84-2.98-4.72-2.62c.65-1.11,1.59-2,2.34-3.04s1.31-2.38,1-3.65c-.32-1.34-1.55-2.26-2.82-2.54s-2.58-.05-3.86.19c.62-.38.46-1.37.2-2.08-1.01-2.87-2.45-6.06-5.22-6.84-2.38-.67-4.8.73-6.89,2.12-3.91,2.6-7.78,5.39-10.87,9.04,3.57,2.44,8.33,2.73,12.14.74-1.46,1.16-2.93,2.33-4.06,3.86s-1.88,3.46-1.65,5.39c3.42.61,6.95.51,10.34-.3-1.75.64-3.5,1.29-5.25,1.93-.74.27-1.56.62-1.85,1.4-.28.76.1,1.65.69,2.15s1.36.71,2.1.89c3.37.8,6.81,1.25,10.25,1.34-1.6.17-3.63.77-3.78,2.49-.09,1.04.68,2,1.58,2.41s1.92.39,2.9.37c2.61-.06,5.27-.97,7.37-.4Z"/>
    <path id="Shorts" class="cls-8" d="m171.68,263.23c-11.86,12.25-29.68,17.22-46.73,17.04s-31.95-3.72-48.33-8.46c-15.84,40.45-12.49,70.01-11,73.12.1.21.27.38.49.47,3.55,1.48,33.86,14.31,51.39,16.75,2.22-10.9,4.68-22.71,5.3-33.81,1.9.42,5.11-2.58,6.98-3.15-1.76,12.64,3.71,28.93,9.66,40.22,15.18-11.35,31.29-21.47,48.1-30.23-.96-12.3-1.93-24.63-4.3-36.73-2.49-12.71-6.52-25.12-11.56-35.22Z"/>
    <path id="Shirt" class="cls-10" d="m181.05,170.34c-7.97-10.2-19.85-16.85-32.31-20.36-12.46-3.52-25.55-4.12-38.5-3.95-5.87.08-11.85.33-17.37,2.33-.77.28-1.55.6-2.11,1.19-.58.61-.88,1.43-1.14,2.23-3.35,10.14-4.17,21.1-2.38,31.62,1.64,9.6,3.57,18.45,3.2,28.18-.29,7.63-1.28,16.9-3.88,24.07-3.11,8.55-5.94,15.7-8.5,24.44,15.83,8.24,33.66,12.6,51.5,12.62,5.81,0,11.76-.48,17.08-2.83,4.19-1.86,7.8-4.8,11.35-7.7,3.59-2.94,7.18-5.87,11.53-8.64-5.21-7.69-9.61-15.92-13.1-24.52-.86-2.1-1.67-4.32-1.49-6.58.17-2.08,1.16-3.99,2.13-5.84,8.2-15.55,16.39-31.1,24.01-46.25Z"/>
    <path id="Head" class="cls-6" d="m179.15,53.16c.36,13,.44,26.99-6.95,37.69-3.2,4.63-7.6,8.3-12.16,11.6-1.54,1.12-3.16,2.23-5.02,2.62-2.16.46-4.4-.1-6.49-.81-8.83-2.99-16.49-8.61-23.99-14.15-2.92-2.16-6.03-4.58-7.11-7.67-3.62-2.08-7.32-4.77-8.45-8.79s2.01-9.23,6.12-8.52c-1.46-8.02-2.05-16.2-1.75-24.35.17-4.7.69-9.56,3.04-13.64,2.71-4.7,7.62-7.84,12.84-9.34s10.74-1.5,16.15-1.09c4.36.33,8.74.94,12.88,2.37,13.96,4.85,20.51,19.67,20.91,34.08Z"/>
    <path id="Hair_-_front" data-name="Hair - front" class="cls-3" d="m104.27,38.66c-.89,8.16-2.69,16.22-5.35,23.99,3.47.26,7.02-.77,9.8-2.85-.02,2.52-.76,5.04-2.1,7.18,4.19.29,8.19-1.69,11.71-3.97,9.53-6.16,17.34-14.95,22.33-25.13-.61,5.71-2.08,11.33-4.34,16.62,8.57-4.11,15.74-11.07,20.12-19.5-.43,8.1-2.59,16.11-6.29,23.33,10.43-1.32,17.59-10.82,23.49-19.51.62,6.38-.74,12.94-3.85,18.54,5.97-.72,11.21-4.84,14.19-10.06s3.91-11.42,3.62-17.42c-.15-3.11-.63-6.25-1.84-9.12-2.37-5.64-7.36-9.78-12.66-12.85C159.57.03,142.39-2.01,127.91,3.97s-22.08,20.38-23.65,34.69Z"/>
    <path id="Mouth" class="cls-9" d="m163.88,85.12c-2.08-2.3-5.34-3.28-8.44-3.13s-6.06,1.33-8.8,2.77c.6,3.07,2.3,5.92,4.73,7.89,1.34,1.09,3.04,1.94,4.73,1.62,1.58-.3,2.78-1.53,3.88-2.7,1.83-1.95,3.73-4.02,3.9-6.46Z"/>
    <path id="Teeth" class="cls-1" d="m161.37,83.34c-.91-.73-2.09-1.03-3.24-1.18-3.08-.4-6.27.18-9.02,1.63.15.43.31.87.65,1.17.46.41,1.14.45,1.76.46,2.61.04,5.22-.09,7.81-.39.47-.05.95-.12,1.35-.38s.66-.77.69-1.32Z"/>
    <path id="Tongue" class="cls-11" d="m149.39,90.38c.53.78,1.18,1.48,1.9,2.08.82.67,1.76,1.22,2.79,1.48s2.15.22,3.11-.23c.61-.29,1.14-.72,1.67-1.16.15-.12.3-.25.37-.42.13-.28.03-.61-.1-.89-.54-1.18-1.6-2.07-2.81-2.55-2.29-.92-5.1-.3-6.93,1.7Z"/>
    <path id="Eye_-_right" data-name="Eye - right" class="cls-4" d="m147.4,60.82c.07-1.67-.82-3.23-1.87-4.52-.73-.89-1.56-1.72-2.56-2.29-1.9-1.08-4.37-1.08-6.29-.03-2.65,1.46-4.11,4.63-6.9,5.8-1.64.69-3.5.57-5.24.2,1.59,1.23,3.46,2.36,5.47,2.22,1.68-.12,3.16-1.1,4.55-2.05-.9,1.57-1.82,3.38-1.26,5.09.43,1.33,1.73,2.27,3.1,2.51,1.28.23,2.65-.08,3.71-.84s1.79-1.96,1.97-3.25c.21-1.42-.22-2.85-.67-4.21-.3-.88-.79-1.91-1.72-1.98,1.78-.65,3.82.21,5.1,1.59s1.98,3.2,2.64,4.97c.13-1.11-.07-2.24-.03-3.23Z"/>
    <path id="Eye_-_left" data-name="Eye - left" class="cls-7" d="m184.13,62.6c-.93.91-2.48.86-3.63.25s-1.99-1.65-2.83-2.64c-.93-1.09-1.9-2.15-3.08-2.96s-2.59-1.33-4.02-1.24c-1.81.11-3.44,1.22-4.59,2.61s-1.91,3.07-2.65,4.73c.78-.88,1.75-1.59,2.83-2.05-.64,2.1-1.29,4.27-1,6.45.06.49.18.99.49,1.38.38.47.98.7,1.58.8,2.44.42,5-1.2,5.91-3.5s.24-5.08-1.44-6.9c1.15.09,2.13.87,2.91,1.72s1.43,1.83,2.35,2.53c1.21.93,2.82,1.3,4.31.99s2.83-1.29,2.87-2.17Z"/>
    <path id="Eyebrow_-_left" data-name="Eyebrow - left" class="cls-7" d="m166.64,47.5c2.58-1.77,5.87-2.21,8.71-1.16s5.17,3.57,6.15,6.66c-1.78-2.13-3.73-4.27-6.26-5.16-1.27-.45-2.62-.55-3.96-.63-1.45-.08-2.92-.13-4.65.28Z"/>
    <path id="Eyebrow-_right" data-name="Eyebrow- right" class="cls-7" d="m148.53,46.02c-1.14-.96-2.73-1.55-4.34-1.95-2.49-.61-5.14-.81-7.74-.58-2.2.19-4.38.7-6.18,1.69-1.92,1.06-3.3,2.6-4.37,4.22,2.58-1.71,5.8-2.78,9.09-3.45,4.44-.91,9.28-1.11,13.53.08Z"/>
  </g>
</svg>