<?xml version="1.0" encoding="UTF-8"?>
<svg id="Hip_hop_-_hat" data-name="Hip hop - hat" xmlns="http://www.w3.org/2000/svg" viewBox="0 0 139.5 79.53">
  <defs>
    <style>
      .cls-1 {
        fill: #f5b356;
        stroke: #f08b4f;
        stroke-miterlimit: 10;
      }
    </style>
  </defs>
  <path id="Hat" class="cls-1" d="m22.41,76.6c12.84-13.53,28.35-24.24,44.25-34,7.45-4.58,15.09-9,23.4-11.75s17.41-3.72,25.82-1.32c8.03,2.29,14.9,7.47,22.84,10.29-1.42-4.68-5.05-8.44-9.23-10.97s-8.92-3.97-13.63-5.28c.1-4.43-3.09-8.24-6.47-11.11C99.88,4.38,87.29.04,74.83.54s-24.67,5.84-33.49,14.66c-12.41,12.4-17.45,30.27-20.59,47.53-.87,4.78-1.59,9.89,1.66,13.87Z"/>
</svg>