<?xml version="1.0" encoding="UTF-8"?>
<svg id="Layer_2" data-name="Layer 2" xmlns="http://www.w3.org/2000/svg" viewBox="0 0 119.97 77.35">
  <defs>
    <style>
      .cls-1 {
        fill: #f5b356;
        stroke: #f08b4f;
        stroke-miterlimit: 10;
      }
    </style>
  </defs>
  <g id="Hip_hop_-_hat" data-name="Hip hop - hat">
    <path id="Hat" class="cls-1" d="m2.9,76.6c12.84-13.53,28.35-24.24,44.25-34,7.45-4.58,15.09-9,23.4-11.75s17.41-3.72,25.82-1.32c8.03,2.29,14.9,7.47,22.84,10.29-1.42-4.68-5.05-8.44-9.23-10.97s-8.92-3.97-13.63-5.28c.1-4.43-3.09-8.24-6.47-11.11C80.37,4.38,67.78.04,55.32.54S30.65,6.38,21.83,15.2C9.42,27.6,4.37,45.47,1.24,62.73c-.87,4.78-1.59,9.89,1.66,13.87Z"/>
  </g>
</svg>