<?xml version="1.0" encoding="UTF-8"?>
<svg id="Layer_2" data-name="Layer 2" xmlns="http://www.w3.org/2000/svg" viewBox="0 0 236.72 164.63">
  <defs>
    <style>
      .cls-1 {
        fill: #f8b356;
        stroke: #f8981d;
      }

      .cls-1, .cls-2 {
        stroke-miterlimit: 10;
      }

      .cls-2 {
        fill: #fee070;
        stroke: #faa861;
      }
    </style>
  </defs>
  <g id="Hip_hop_-_shirt" data-name="Hip hop - shirt">
    <path id="Undershirt" class="cls-1" d="m151.92,9.28c-4.86,4.33-8.87,9.61-11.72,15.47-2.04,4.19-3.54,8.75-6.6,12.27,6.26.83,12.18,4.06,16.27,8.88-.28-2.35-1.11-4.59-1.62-6.9-2.27-10.31,2.58-21.8,11.55-27.36-2.93-1.25-6-2.18-9.12-2.78.47-.1.94-.21,1.24.43Z"/>
    <path id="Shirt" class="cls-2" d="m235.94,37.54c-.57-1.49-2.04-2.41-3.42-3.2-3.23-1.86-6.51-3.63-9.84-5.31-1.42-.72-2.89-1.43-4.47-1.55-3.28-.25-6.19,2.06-8.39,4.51-3.34,3.71-5.97,8.05-7.72,12.73-2.18,5.85-3.36,12.76-8.5,16.31,1.12-4.18-2.52-7.94-5.47-11.1-6.3-6.74-10.81-15.12-12.96-24.09-.34-1.4-.92-3.11-2.35-3.3-.8-.1-1.55.34-2.23.76-9.09,5.42-20.3,7.17-30.62,4.8-5.29-1.22-10.29-3.46-15.06-6.05-10.46-5.68-19.96-13.12-28.28-21.51-13.46,1.63-27.94,3.73-37.71,13.13-11.41,10.96-12.93,28.29-17.96,43.29-4.96,14.8-13.76,27.98-22.87,40.66-5.78,8.04-11.83,16.14-14.92,25.55-2.72,8.26-3.02,17.14-2.37,25.81.08,1.12.19,2.27.72,3.25.65,1.2,1.84,2,2.98,2.75,4.51,2.96,9.03,5.92,13.54,8.89,1.47-4.8,6.03-7.84,10.04-10.86,11.55-8.71,21-20.74,24.6-34.75,1.73-6.76,2.09-13.84,4.18-20.49,3.76-11.95,12.96-22.15,14.04-34.63-.33,6.56,0,13.14,1,19.63.62,4.02,1.48,8.04,1.69,12.09.1.02.21.04.31.06,7.7.75,15.25,3.22,22.89,4.92,4.62.47,9.25.86,13.78,1.77,5.43.21,10.86.07,16.25-.57,4.86-.58,9.91-2.66,14.86-3.34.04-.08.09-.17.13-.25,6.18-11.71,12.67-23.26,19.46-34.63,9.1,15.68,23.8,28.04,40.81,34.3.96.35,1.98.69,2.98.49,1.55-.31,2.55-1.79,3.38-3.14,4.55-7.43,9.1-14.87,13.64-22.3,5.97-9.76,12.06-19.83,13.93-31.11.19-1.16.33-2.38-.09-3.48Z"/>
  </g>
</svg>