<?xml version="1.0" encoding="UTF-8"?>
<svg id="Hip_hop_-_pants" data-name="Hip hop - pants" xmlns="http://www.w3.org/2000/svg" viewBox="0 0 245.03 369.13">
  <defs>
    <style>
      .cls-1 {
        fill: #fff;
      }

      .cls-2 {
        fill: none;
        stroke: #9e1f63;
      }

      .cls-2, .cls-3, .cls-4, .cls-5 {
        stroke-miterlimit: 10;
      }

      .cls-3 {
        stroke: #ef804d;
      }

      .cls-3, .cls-4 {
        fill: #f5b356;
      }

      .cls-4 {
        stroke: #f19250;
      }

      .cls-5 {
        fill: #623628;
        stroke: #231f20;
      }
    </style>
  </defs>
  <g id="Shoe_-_left" data-name="Shoe - left">
    <g>
      <path id="Shoe_-_left-2" data-name="Shoe - left" class="cls-3" d="m36.12,312.76c-4.35-.33-7.13,4.41-8.82,8.44-1.34,3.2-2.68,6.41-4.03,9.61-2.86,6.84-6.71,14.54-13.94,16.19-1.63.37-3.39.41-4.85,1.22-2.6,1.43-3.44,4.78-3.45,7.75s.53,6.03-.39,8.86c12.68,2.87,25.73,4.13,38.73,3.74,1.16-.04,2.38-.1,3.39-.67,1.48-.84,2.18-2.54,2.93-4.07,2.18-4.46,5.56-8.32,9.7-11.06,2.74-1.82,6.06-3.46,7.07-6.59.65-2.04.14-4.24-.38-6.32-2-8.07-4.01-16.13-5.54-24.64-.5-.97-1-1.95-1.7-2.77-2.28-2.36-6.12-1.7-9.34-1.1-3.28.61-6.6.98-9.38,1.43Z"/>
      <path class="cls-1" d="m1.35,363.92c.8-1.43.44-3.19.26-4.82-.2-1.92-.1-3.88.31-5.77.19-.87.45-1.74.9-2.51,1.51-2.57,4.76-3.45,7.71-3.92,9.15-1.48,18.74-1.26,27.43,1.96,1.33.49,2.74,1.14,3.4,2.4.27.51.39,1.08.5,1.64.5,2.36.99,4.74,1.06,7.16s-.33,4.89-1.53,6.99c-.11.2-.24.4-.43.52-.22.15-.51.17-.77.18-13.17.76-26.45-.53-38.85-3.83Z"/>
      <path class="cls-1" d="m33.57,313.22c-1.49.7-3.01,1.42-4.17,2.59s-1.89,2.9-1.43,4.48c.14.47.38.97.21,1.43-.08.24-.26.43-.44.61-.94.93-2.01,1.76-2.7,2.89s-.9,2.69-.08,3.72c.25.31.59.57.74.95.37.96-.68,1.81-1.53,2.39-1.35.92-2.53,2.07-3.5,3.39-.26.36-.51.74-.57,1.18s.14.94.55,1.1c.27.11.58.05.86.14.73.23.82,1.32.32,1.9s-1.32.74-2.07.81-1.56.09-2.21.48-1.06,1.32-.61,1.93c.48.66,1.47.51,2.26.32,4.19-1.02,8.68-1.41,12.75.03,2.19.77,4.17,2.04,6.09,3.36.38.26.77.53,1.22.58.98.12,1.82-.9,1.84-1.89s-.55-1.89-1.21-2.63-1.42-1.4-1.93-2.25c1.39.12,2.8,0,4.15-.33.48-.12,1-.31,1.21-.75.12-.26.11-.57.08-.86-.21-2.16-1.27-4.22-2.89-5.66-.27-.24-.58-.48-.72-.82s-.05-.81.29-.94c.16-.06.34-.04.52-.02,1.15.14,2.35.16,3.44-.22s2.08-1.22,2.39-2.34c.36-1.29-.23-2.66-1.03-3.74s-1.81-1.99-2.48-3.15c1.43-.75,3.37-.56,4.43-1.78.76-.88.76-2.17.6-3.32-.04-.3-.1-.62-.26-.88-.23-.36-.63-.56-1.02-.74-4.11-1.84-9.11-3.86-13.12-1.98Z"/>
    </g>
  </g>
  <g id="Shoe_-_right" data-name="Shoe - right">
    <g>
      <path id="Shoe_-_right-2" data-name="Shoe - right" class="cls-4" d="m195.08,297.85c6.32,1.29,10.93,6.78,13.9,12.5s4.85,12.03,8.5,17.34c4.17,6.07,10.59,10.56,17.73,12.38,1.71.44,3.61.81,4.72,2.19.82,1.02,1.03,2.38,1.22,3.68.57,4.06,1.15,8.12,1.72,12.18-8.39,1.08-16.79,2.17-25.24,2.43-12.69.39-25.62-1.15-37.29-6.17-1.02-.44-2.07-.94-2.73-1.83-.57-.77-.78-1.74-.97-2.67-2.83-13.97-4.9-28.09-6.2-42.29-.22-2.37-.3-5.06,1.35-6.77,1.53-1.58,3.98-1.72,6.17-1.75,7.38-.11,14.76-.22,17.11-1.21Z"/>
      <path class="cls-1" d="m229.7,338.47c-6.32-1.97-13.2-1.52-19.58.25-2.13.59-4.32,1.39-5.8,3.04-2.07,2.29-2.29,5.66-2.41,8.74-.1,2.77-.19,5.66,1,8.16.12.24.25.49.48.64.19.12.41.15.63.18,8.67,1.14,17.47.18,26.16-.78,3.99-.44,7.98-.88,11.98-1.32.1-2.19-.16-4.39-.76-6.49-.21-.72-.46-1.44-.6-2.18-.39-2.07.03-4.48-1.38-6.03-.54-.6-1.28-.96-2.02-1.3-2.83-1.3-5.78-2.31-7.7-2.9Z"/>
      <path class="cls-1" d="m191.15,303.45c-1.8.54-3.55,1.27-5.2,2.17-.67.37-1.43,1.05-1.13,1.75.18.42.66.6,1.1.71,1.39.36,2.84.45,4.26.26.43.98-.53,1.95-1.3,2.69-1.18,1.12-2.14,2.45-2.84,3.91-.19.4-.37.87-.22,1.29.1.27.31.47.54.64,2.06,1.48,5,.25,7.44.96.27.08.58.26.56.54,0,.1-.06.19-.12.28-.69,1.08-1.69,1.91-2.48,2.92s-1.39,2.3-1.07,3.54c.35,1.34,1.72,2.22,3.1,2.42s2.76-.14,4.11-.48c.43,1.26-.36,2.58-1.16,3.64s-1.71,2.24-1.54,3.55c.21,1.61,1.93,2.57,3.53,2.85,2.33.41,4.8-.11,6.77-1.42,1.28-.85,2.33-2,3.6-2.86,2.36-1.6,5.44-2.1,8.18-1.31.37.11.76.24,1.14.15.62-.14.98-.85.93-1.48s-.42-1.2-.81-1.7c-1.69-2.13-4.19-3.59-6.87-4.04,1.61-.28,2.68-2.04,2.52-3.66s-1.32-3.02-2.72-3.84-3.04-1.16-4.66-1.38c1.53-1.13,1.53-3.38,1.38-5.27-.07-.89-.17-1.86-.76-2.53-1.01-1.14-2.83-.84-4.3-.46,1.23-.42,2.11-1.72,2.04-3.02s-1.08-2.5-2.35-2.78c-.67-.15-1.37-.07-2.05.01-1.03.12-2.07.25-3.1.37-2.7.32-5.25,1.21-6.52,1.59Z"/>
    </g>
  </g>
  <path id="Pants" class="cls-5" d="m127.56,3.81c-11.66,12.05-29.04,17.17-45.8,17.35-16.76.19-33.22-4.03-49.46-8.21-12.01,26.28-17.03,55.72-14.43,84.5,1.89,20.84,7.68,41.37,7.25,62.29-.31,14.96-3.8,29.67-5.28,44.56-2.24,22.5.12,45.17,2.48,67.66.94,8.98,1.89,17.97,2.83,26.95.26,2.45.55,5,1.84,7.1,2.45,3.98,7.6,5.14,12.2,5.95,7.45,1.3,17.19,1.47,20.23-5.45,1.58-3.6.53-7.72.17-11.63-1.23-13.39,5.95-25.97,8.78-39.12,2.06-9.56,1.8-19.46,1.4-29.24-.48-11.7-1.19-23.66-5.68-34.48-1.26-3.03-2.82-6.02-3.1-9.29-.28-3.34.81-6.62,1.85-9.8,9.7-29.68,16.34-60.36,19.77-91.4.4,11.26.82,22.64,3.81,33.5,7.07,25.66,27.95,46.47,31.88,72.79,1.12,7.54.79,15.25,2.04,22.77,3.59,21.47,19.38,38.45,32.51,55.81,2.58,3.4,5.13,7,6.05,11.17.88,4,.19,8.26,1.35,12.19,1.59,5.38,6.49,9.28,11.8,11.11s11.04,1.91,16.65,1.91c4.63,0,10.08-.47,12.53-4.4,2.56-4.11.29-9.4-1.84-13.74-8.61-17.56-14.7-36.22-20.75-54.81-5.13-15.75-10.28-31.58-12.83-47.95-2.15-13.84-2.42-27.89-3.62-41.84-1.75-20.18-5.47-40.13-9.18-60.04-4.9-26.28-10.17-53.46-25.45-76.21Z"/>
  <g id="Details">
    <g>
      <path class="cls-2" d="m22.2,124.16c9.62.33,19.23,1.12,28.78,2.38.55.07,1.14.17,1.53.56.54.55.47,1.42.37,2.18-2.52,18.56-5.04,37.12-7.56,55.68-.27,2.02-1.23,4.63-3.26,4.44-6.69-.64-13.51.03-19.95,1.95-.08.02-.15.05-.23.07"/>
      <path class="cls-2" d="m34.91,125.74c7.07-35.22,13.7-70.53,19.89-105.92"/>
      <path class="cls-2" d="m31.94,190c1.97,40.7,3.94,81.42,8.24,121.94"/>
      <path class="cls-2" d="m158.66,115.76c-8.16,3.65-16.32,7.3-24.48,10.95,3.38,17.02,6.75,34.03,10.13,51.05.15.77.35,1.61.99,2.06.64.46,1.51.37,2.29.27,5.87-.74,11.82-.85,17.72-.34"/>
      <path class="cls-2" d="m147.47,121.53c-5.58-16.53-9.84-33.51-12.72-50.72-1.71-10.19-2.95-20.51-5.96-30.4-3.01-9.89-7.97-19.47-15.89-26.12"/>
      <path class="cls-2" d="m156.44,180.4c5.12,8.12,6.07,18.08,7.37,27.59,3.32,24.22,9.77,48.02,19.14,70.6,2.9,7,6.14,14.1,6.48,21.67"/>
    </g>
  </g>
</svg>