<?xml version="1.0" encoding="UTF-8"?>
<svg id="Indie_-_pants" data-name="Indie - pants" xmlns="http://www.w3.org/2000/svg" viewBox="0 0 245.03 369.13">
  <defs>
    <style>
      .cls-1 {
        fill: #d9afd2;
        stroke: #d786b9;
      }

      .cls-1, .cls-2 {
        stroke-miterlimit: 10;
      }

      .cls-2 {
        fill: #fffde7;
        stroke: #ffe4bc;
      }
    </style>
  </defs>
  <path id="Skirt" class="cls-2" d="m28.12,30.2c-10.65,23.03-9.02,49.57-8.18,74.93,1.96,59.23,4.86,66.63-4.14,125.2,20.24,14.26,41.25,18.7,65.95,16.96s42.62.21,66.15-7.48c14.29-4.67,20.32-14.04,31.94-23.59q-17.82-44.9-25.39-92.46c-6.58-40.92-9.5-83.08-25.41-121.35-.07,4.57-4.66,7.64-8.86,9.43-27.1,11.59-58.14,5.31-86.9-1.15-.6,6.85-2.42,13.58-5.16,19.49Z"/>
  <path id="Shoe_left" data-name="Shoe left" class="cls-1" d="m20.45,345.41c-2.21,3.24.8,7.98,4.62,8.87s7.74-.79,11.22-2.6c3.09-1.6,6.13-3.36,8.72-5.68,5.5-4.94,8.48-12.01,11.29-18.84,1.51,3.5,2.48,7.23,2.85,11.01.09.95.15,1.93-.16,2.83-.31.88-.94,1.61-1.56,2.31-5.78,6.57-11.56,13.14-17.35,19.72-1.28,1.46-2.67,2.98-4.53,3.5-1.26.35-2.59.21-3.88.06-6.09-.69-12.18-1.38-18.27-2.07-2.13-.24-4.36-.52-6.15-1.7s-3-3.56-2.13-5.53c.5-1.14,1.57-1.92,2.6-2.63,4.02-2.82,8.04-5.64,12.72-9.26Z"/>
  <path id="Shoe_right" data-name="Shoe right" class="cls-1" d="m173.69,309.23c5.14,13.61,18.37,22.17,30.82,29.7,7.4,4.47,16.01,9.09,24.26,6.51.81-.25,1.63-.58,2.48-.53.99.06,1.87.64,2.7,1.19,4.71,3.15,9.86,7,10.53,12.62-5,1.39-10.17,2.02-15.31,2.65-3.74.46-7.55.91-11.27.28-10.05-1.72-16.95-10.67-25.01-16.91-4.26-3.3-9.03-5.93-14.1-7.76-2.24-.81-4.64-1.53-6.27-3.27-2.15-2.29-2.42-5.75-2.21-8.88.34-5.3,1.68-10.54,3.38-15.6Z"/>
</svg>