<?xml version="1.0" encoding="UTF-8"?>
<svg id="Indie_-_hat" data-name="Indie - hat" xmlns="http://www.w3.org/2000/svg" viewBox="0 0 139.5 79.53">
  <defs>
    <style>
      .cls-1 {
        fill: #8997cc;
      }

      .cls-2 {
        fill: #fff;
      }

      .cls-3 {
        fill: #891949;
      }

      .cls-4 {
        fill: #f3d780;
      }

      .cls-5 {
        opacity: .5;
      }

      .cls-6 {
        fill: #694a5f;
      }

      .cls-7 {
        fill: #ecbf36;
      }

      .cls-8 {
        fill: #f7e6ae;
      }

      .cls-9 {
        fill: #eeadbf;
      }

      .cls-10 {
        opacity: .34;
      }

      .cls-11 {
        fill: #79b7ad;
      }

      .cls-12 {
        fill: #4f3747;
      }

      .cls-13 {
        fill: #b71f62;
      }

      .cls-14 {
        fill: #e67f9b;
      }
    </style>
  </defs>
  <g id="flower_5" data-name="flower 5">
    <path class="cls-14" d="m47.17,20.73c-.51-3.18-2.81-17.37,1.98-17.37,3.63,0,1.16,12.87,1.16,17.03,0-3.8,4.22-16.31,7.99-14.92,4.84,1.78-4.61,14.15-5.67,15.42,2.24-2.83,11.41-10.4,14.36-7.51,3.74,3.67-10.47,9.73-12.55,9.85,3.77,0,15.27-2.05,15.28,2.2.01,4.54-14.22,1.07-15.28.64,3.41,1.72,15.13,6.28,12.22,10.46-2.86,4.12-12.57-6.52-13.71-8.13,1.08,3.08,9.27,14.55,3.96,16.03-4.81,1.51-6.14-13.08-6.94-15.36-.26,3.75,2.21,16.49-2.46,16.74-5.08.27-1.57-14.72-1-16.57-.97,3.61-3.83,15.24-8.09,14.38-5.34-1.08,2.84-12.09,5.77-15.55-2.18,1.47-13.42,12.46-15.52,7.85-1.68-3.97,11.56-9.44,13.87-10.02-3.37.49-15.08,2.08-15.08-2.43,0-4.31,13.53-.37,15.24.09-2.88-1.7-14.32-5.43-12.75-9.39,2.23-5.63,13.28,5.29,14.24,7.22-1.76-3.12-9.82-13.21-5.59-15.84,4.6-2.87,8.32,12.91,8.57,15.17"/>
    <g>
      <g>
        <path class="cls-9" d="m45.64,19.47c1.19-1.79,2.05-4.19,3.04-6.43,1,2.24,2.18,4.34,2.93,7.02l-5.98-.6h0Z"/>
        <path class="cls-9" d="m43.53,22.09c-.33-2.61-.24-4.96-.44-7.38,1.95,1.45,3.8,3.17,5.66,4.4l-5.22,2.98h0Z"/>
        <path class="cls-9" d="m41.9,24.78c-.12-1.31-1.7-3.11-2.39-4.46,0,0-.92-1.61-.92-1.61,1.03.21,2.54.59,3.55.7,1.17.17,2.51.35,4.01,1.13l-4.25,4.24h0Z"/>
        <path class="cls-9" d="m43.05,27.77c-2.12-.86-3.87-2.1-5.73-3.33,1.84-.78,3.87-1.53,5.47-2.67,0,0,.26,6,.26,6h0Z"/>
        <path class="cls-9" d="m45.53,29.16c-2.1.9-3.93.53-6.01.78-.62.07-1.25.15-1.88.17.79-.95,1.51-2.03,2.33-2.96.66-.81,1.65-1.72,1.77-2.65,0,0,3.79,4.66,3.79,4.66h0Z"/>
        <path class="cls-9" d="m48.11,30.24c-1.76,1.64-3.76,3.28-5.86,4.42.46-2.3.48-4.49.35-6.8,0,0,5.51,2.38,5.51,2.38h0Z"/>
        <path class="cls-9" d="m50.96,29.81c-.82,2.26-2.09,3.84-3.16,5.85-.94-1.75-1.66-3.97-2.83-5.48,0,0,5.99-.37,5.99-.37h0Z"/>
        <path class="cls-9" d="m53.99,27.5c.21,2.58-.36,4.75-.75,7.16-1.44-1.54-2.9-3.45-4.64-4.51,0,0,5.39-2.65,5.39-2.65h0Z"/>
        <path class="cls-9" d="m54.93,24.42c1.1,1.92,2.06,3.9,2.69,5.9-2.01-.55-4.01-.78-5.97-.88l3.28-5.03h0Z"/>
        <path class="cls-9" d="m53.73,22c1.52,1.23,3.55,1.92,5.27,2.88-1.92,1.05-3.6,2.35-5.71,3.11,0,0,.44-5.99.44-5.99h0Z"/>
        <path class="cls-9" d="m51.29,20.03c2.01.05,4.37-.52,6.66-.7-1.27,1.9-2.15,3.92-3.77,5.96l-2.89-5.26h0Z"/>
        <path class="cls-9" d="m48.51,18.8c2.11-.89,3.8-2.54,5.67-3.92-.18,2.5-.1,5.04-.88,7.53,0,0-4.79-3.62-4.79-3.62h0Z"/>
      </g>
      <path class="cls-12" d="m44.55,20.71c-5.57,4.59,1.81,14.16,8.16,8.01,4.68-4.54-2.42-13.33-8.16-8.01"/>
      <g>
        <path class="cls-1" d="m50.54,27.03c1.1.85-.36,2.62-1.61,1.48-.92-.84.48-2.46,1.61-1.48"/>
        <path class="cls-1" d="m47.64,21.77c1.1.85-.36,2.62-1.61,1.48-.92-.84.48-2.46,1.61-1.48"/>
        <path class="cls-1" d="m51.05,21.24c1.3,1-.42,3.09-1.9,1.75-1.09-.99.56-2.91,1.9-1.75"/>
        <path class="cls-1" d="m46.15,24.35c1.1.85-.36,2.62-1.61,1.48-.92-.84.48-2.46,1.61-1.48"/>
        <path class="cls-1" d="m52.18,24.35c1.1.85-.36,2.62-1.61,1.48-.92-.84.48-2.46,1.61-1.48"/>
        <path class="cls-1" d="m48.99,24.45c1,.78-.32,2.4-1.46,1.36-.84-.77.43-2.26,1.46-1.36"/>
        <path class="cls-1" d="m47.36,27.14c.93.73-.3,2.24-1.36,1.27-.78-.72.4-2.11,1.36-1.27"/>
      </g>
    </g>
  </g>
  <g id="stem">
    <g>
      <path class="cls-6" d="m21.62,48.32c-3.99-1.44-7.68-3.55-10.59-6.66-.88-.94-2.3.48-1.42,1.42,3.16,3.36,7.17,5.62,11.48,7.18.51.18,1.1-.21,1.23-.7.15-.56-.19-1.05-.7-1.23h0Z"/>
      <path class="cls-6" d="m22.36,48.49c-3.09,2.48-5.23,5.85-7.77,8.84-.35.41-.4,1.01,0,1.42.36.36,1.06.41,1.42,0,2.54-3,4.68-6.36,7.77-8.84.42-.34.35-1.06,0-1.42-.42-.42-.99-.34-1.42,0h0Z"/>
      <path class="cls-6" d="m29.77,47.2c-3.32-2.75-6.71-5.53-9.29-9.02-.32-.43-.87-.65-1.37-.36-.43.25-.68.93-.36,1.37,2.7,3.64,6.13,6.55,9.6,9.42.42.34,1.01.41,1.42,0,.35-.35.42-1.07,0-1.42h0Z"/>
      <path class="cls-6" d="m32.51,46.43c-2.09.86-3.49,2.8-4.69,4.63-1.42,2.17-2.32,4.54-3.37,6.9-.22.49-.14,1.08.36,1.37.43.25,1.15.14,1.37-.36.99-2.22,1.82-4.46,3.13-6.51.52-.81,1.06-1.61,1.68-2.35.56-.66,1.24-1.41,2.06-1.75.5-.21.85-.66.7-1.23-.13-.47-.73-.91-1.23-.7h0Z"/>
      <path class="cls-6" d="m38.32,46.47c-2.73-3.11-5.71-6.01-7.74-9.66-.63-1.13-2.36-.12-1.73,1.01,2.11,3.8,5.21,6.83,8.05,10.07.36.41,1.05.37,1.42,0,.4-.4.36-1.01,0-1.42h0Z"/>
      <path class="cls-6" d="m39.14,47.43c-1.99,2.62-3.48,5.56-4.75,8.58-.21.5.22,1.1.7,1.23.58.16,1.02-.2,1.23-.7,1.2-2.86,2.67-5.63,4.55-8.1.33-.43.07-1.12-.36-1.37-.51-.3-1.04-.07-1.37.36h0Z"/>
    </g>
    <g>
      <path class="cls-1" d="m15.18,49.43c-4.36.64-17.86-4.72-14.71-8.34,2.58-2.97,10.77,7.04,14.71,8.34"/>
      <path class="cls-1" d="m20.94,49.42c-2.03-.33-15.95,2.57-14.59,5.61,2.27,5.1,12.97-4.54,14.59-5.61"/>
      <path class="cls-1" d="m25.11,48.73c-2.44-1.31-16.37-7.79-13.27-11.37,2.36-2.71,11.82,10.34,13.27,11.37"/>
      <path class="cls-1" d="m28.01,48.26c-2.82,1.51-13.12,10.94-10.75,13.26,3.33,3.26,9.94-12.27,10.75-13.26"/>
      <path class="cls-1" d="m33.41,47.34c-2.94-1.16-15.57-11-12.2-14,2.24-1.99,11.73,13.5,12.2,14"/>
      <path class="cls-1" d="m36.24,47.46c-2.81,2.06-11.52,11.21-8.31,13.5,2.37,1.69,7.46-11.9,8.31-13.5"/>
      <path class="cls-1" d="m41.03,48.13c-2.89-1.93-9.5-8.66-7.12-10.78,1.71-1.52,6.81,8.57,7.12,10.78"/>
    </g>
    <path class="cls-6" d="m4.39,45.21c2.63,2.16,5.55,3.96,8.9,4.73,2.99.69,6.11.6,9.15.23,7.02-.84,14.45-4.25,20.89.33,1.05.75,2.05-.99,1.01-1.73-6.13-4.35-13.12-2.16-19.86-.92-3.13.58-6.5.89-9.66.36-3.4-.57-6.38-2.25-9.02-4.42-.99-.81-2.41.6-1.42,1.42h0Z"/>
    <g>
      <g>
        <path class="cls-14" d="m8.6,42.23c-.32,2.14,3.26,2.79,3.43.14.13-1.95-3.22-2.48-3.43-.14"/>
        <path class="cls-14" d="m17.81,38.64c-.32,2.14,3.26,2.79,3.43.14.13-1.95-3.22-2.48-3.43-.14"/>
        <path class="cls-14" d="m28.01,37.17c-.32,2.14,3.26,2.79,3.43.14.13-1.95-3.22-2.48-3.43-.14"/>
        <path class="cls-14" d="m33.65,56.12c-.32,2.14,3.26,2.79,3.43.14.13-1.95-3.22-2.48-3.43-.14"/>
        <path class="cls-14" d="m13.59,57.89c-.32,2.14,3.26,2.79,3.43.14.13-1.95-3.22-2.48-3.43-.14"/>
        <path class="cls-14" d="m23.61,58.31c-.32,2.14,3.26,2.79,3.43.14.13-1.95-3.22-2.48-3.43-.14"/>
        <path class="cls-14" d="m25.72,34.72c-.23,1.56,2.37,2.03,2.5.1.09-1.42-2.35-1.81-2.5-.1"/>
        <path class="cls-14" d="m17.52,35.25c-.23,1.56,2.37,2.03,2.5.1.09-1.42-2.35-1.81-2.5-.1"/>
        <path class="cls-14" d="m5.62,41.08c-.23,1.56,2.37,2.03,2.5.1.09-1.42-2.35-1.81-2.5-.1"/>
        <path class="cls-14" d="m10.38,57.74c-.23,1.56,2.37,2.03,2.5.1.09-1.42-2.35-1.81-2.5-.1"/>
        <path class="cls-14" d="m25.25,61.82c-.23,1.56,2.37,2.03,2.5.1.09-1.42-2.35-1.81-2.5-.1"/>
        <path class="cls-14" d="m31.51,58.81c-.23,1.56,2.37,2.03,2.5.1.09-1.42-2.35-1.81-2.5-.1"/>
        <path class="cls-14" d="m7.94,39.22c-.18,1.25,1.9,1.63,2,.08.08-1.14-1.88-1.45-2-.08"/>
        <path class="cls-14" d="m22.5,61.01c-.18,1.25,1.9,1.63,2,.08.08-1.14-1.88-1.45-2-.08"/>
        <path class="cls-14" d="m34.63,59.58c-.18,1.25,1.9,1.63,2,.08.08-1.14-1.88-1.45-2-.08"/>
        <path class="cls-14" d="m28.85,34.08c-.18,1.25,1.9,1.63,2,.08.07-1.14-1.88-1.45-2-.08"/>
        <path class="cls-14" d="m15.71,37.14c-.18,1.25,1.9,1.63,2,.08.08-1.14-1.88-1.45-2-.08"/>
        <path class="cls-14" d="m12.17,60.33c-.18,1.25,1.9,1.63,2,.08.08-1.14-1.88-1.45-2-.08"/>
      </g>
      <g>
        <g class="cls-5">
          <path class="cls-2" d="m9.74,41.97c-.11.73,1.11.95,1.17.05.04-.66-1.1-.84-1.17-.05"/>
        </g>
        <g class="cls-5">
          <path class="cls-2" d="m18.95,38.38c-.11.73,1.11.95,1.17.05.04-.66-1.1-.84-1.17-.05"/>
        </g>
        <g class="cls-5">
          <path class="cls-2" d="m29.15,36.91c-.11.73,1.11.95,1.17.05.04-.66-1.1-.84-1.17-.05"/>
        </g>
        <g class="cls-5">
          <path class="cls-2" d="m34.79,55.87c-.11.73,1.11.95,1.17.05.04-.66-1.1-.84-1.17-.05"/>
        </g>
        <g class="cls-5">
          <path class="cls-2" d="m14.73,57.63c-.11.73,1.11.95,1.17.05.04-.66-1.1-.84-1.17-.05"/>
        </g>
        <g class="cls-5">
          <path class="cls-2" d="m24.75,58.05c-.11.73,1.11.95,1.17.05.04-.66-1.1-.84-1.17-.05"/>
        </g>
        <g class="cls-5">
          <path class="cls-2" d="m26.55,34.44c-.08.53.81.69.85.03.03-.48-.8-.61-.85-.03"/>
        </g>
        <g class="cls-5">
          <path class="cls-2" d="m18.36,34.96c-.08.53.81.69.85.03.03-.48-.8-.61-.85-.03"/>
        </g>
        <g class="cls-5">
          <path class="cls-2" d="m6.45,40.79c-.08.53.81.69.85.03.03-.48-.8-.61-.85-.03"/>
        </g>
        <g class="cls-5">
          <path class="cls-2" d="m11.22,57.45c-.08.53.81.69.85.03.03-.48-.8-.61-.85-.03"/>
        </g>
        <g class="cls-5">
          <path class="cls-2" d="m26.08,61.54c-.08.53.81.69.85.03.03-.48-.8-.61-.85-.03"/>
        </g>
        <g class="cls-5">
          <path class="cls-2" d="m32.35,58.53c-.08.53.81.69.85.03.03-.48-.8-.61-.85-.03"/>
        </g>
        <g class="cls-5">
          <path class="cls-2" d="m8.61,38.92c-.06.42.65.55.68.03.03-.39-.64-.49-.68-.03"/>
        </g>
        <g class="cls-5">
          <path class="cls-2" d="m23.17,60.7c-.06.43.65.55.68.03.03-.39-.64-.49-.68-.03"/>
        </g>
        <g class="cls-5">
          <path class="cls-2" d="m35.3,59.27c-.06.42.65.55.68.03.03-.39-.64-.49-.68-.03"/>
        </g>
        <g class="cls-5">
          <path class="cls-2" d="m29.53,33.77c-.06.42.65.55.68.03.03-.39-.64-.49-.68-.03"/>
        </g>
        <g class="cls-5">
          <path class="cls-2" d="m16.38,36.84c-.06.42.65.55.68.03.03-.39-.64-.49-.68-.03"/>
        </g>
        <g class="cls-5">
          <path class="cls-2" d="m12.84,60.03c-.06.42.65.55.68.03.03-.39-.64-.49-.68-.03"/>
        </g>
      </g>
    </g>
    <g>
      <path class="cls-6" d="m13.98,40.62c3.25,3.12,6.76,5.98,10.32,8.74.43.33,1,.42,1.42,0,.35-.35.43-1.08,0-1.42-3.56-2.76-7.07-5.62-10.32-8.74-.93-.89-2.35.52-1.42,1.42h0Z"/>
      <path class="cls-6" d="m22.32,36.63c3.05,4.07,6.77,7.53,10.18,11.28.87.96,2.28-.46,1.42-1.42-3.29-3.62-6.92-6.95-9.86-10.88-.32-.43-.86-.65-1.37-.36-.43.25-.69.93-.36,1.37h0Z"/>
      <path class="cls-6" d="m33.98,39.46c1.85,3.14,3.88,6.17,6.09,9.07.33.43.86.66,1.37.36.42-.25.69-.94.36-1.37-2.21-2.9-4.23-5.93-6.09-9.07-.65-1.11-2.39-.1-1.73,1.01h0Z"/>
      <path class="cls-6" d="m35.53,46.74c-2.36,3.75-4.88,7.4-7.17,11.2-.67,1.1,1.06,2.11,1.73,1.01,2.3-3.79,4.81-7.45,7.17-11.2.69-1.09-1.04-2.1-1.73-1.01h0Z"/>
      <path class="cls-6" d="m27.33,47.56c-3.34,3.56-6.19,7.54-9.17,11.4-.33.43-.07,1.12.36,1.37.52.3,1.04.07,1.37-.36,2.88-3.73,5.63-7.55,8.85-10.99.88-.94-.53-2.36-1.42-1.42h0Z"/>
      <path class="cls-6" d="m20.13,48.48c-3.74,1.27-7.15,3.3-10.8,4.78-.5.2-.85.67-.7,1.23.13.47.73.9,1.23.7,3.65-1.48,7.06-3.52,10.8-4.78,1.21-.41.69-2.34-.53-1.93h0Z"/>
    </g>
  </g>
  <g id="flower_4" data-name="flower 4">
    <path class="cls-13" d="m120.9,31.6c-1.22.08-2.02.33-2.83,1.15-.89,1.06-.97,1.8-2.43,1.97-2.67.33-5.43.25-5.35,3.93,0,.98.16,1.88.32,2.95.08,1.15-.24,2.21-.49,3.36-.24,1.31-.16,2.54.81,3.52.97.98,2.51.98,3.32,2.13.97,1.23.65,2.54,2.35,3.28,1.7.82,4.21.49,5.75-.41,1.78-1.15,2.92-1.88,5.1-1.88,1.86,0,3.16-.33,3.97-2.13.73-1.72.08-3.11,0-4.91,0-1.97.24-2.87.65-4.67.81-3.28-3.31-4.17-4.94-5.16-1.87-1.14-2.81-3.21-6.24-3.11"/>
    <g>
      <g class="cls-10">
        <path class="cls-3" d="m120.98,36.54c-.69.05-1.15.19-1.6.65-.5.6-.55,1.02-1.38,1.11-1.51.19-3.07.14-3.03,2.23,0,.56.09,1.07.18,1.67.05.65-.14,1.25-.28,1.9-.14.74-.09,1.44.46,1.99.55.56,1.42.56,1.88,1.21.55.7.37,1.44,1.33,1.85.96.46,2.38.28,3.26-.23,1.01-.65,1.65-1.07,2.89-1.07,1.05,0,1.79-.19,2.25-1.21.41-.97.05-1.76,0-2.78,0-1.11.14-1.62.37-2.64.46-1.85-1.88-2.36-2.8-2.92-1.06-.64-1.59-1.81-3.53-1.76"/>
      </g>
      <path class="cls-12" d="m121.04,39.94c-.32.02-.54.09-.76.31-.24.28-.26.48-.65.52-.71.09-1.45.07-1.42,1.05,0,.26.04.5.09.79.02.31-.06.59-.13.89-.06.35-.04.68.22.94.26.26.67.26.88.57.26.33.17.68.63.87.45.22,1.12.13,1.53-.11.47-.31.78-.5,1.36-.5.5,0,.84-.09,1.06-.57.19-.46.02-.83,0-1.31,0-.52.06-.76.17-1.24.22-.87-.88-1.11-1.32-1.37-.5-.3-.75-.85-1.66-.83"/>
      <g>
        <path class="cls-2" d="m125.5,44.07c-.27.22.09.68.39.39.23-.22-.12-.64-.39-.39"/>
        <path class="cls-2" d="m116.02,44.07c-.27.22.09.68.39.39.23-.22-.12-.64-.39-.39"/>
        <path class="cls-2" d="m122.46,38.17c-.27.22.09.68.39.39.23-.22-.12-.64-.39-.39"/>
        <path class="cls-2" d="m122.58,45.77c-.52.43.17,1.31.76.74.43-.42-.22-1.24-.76-.74"/>
        <path class="cls-2" d="m124.79,42.48c-.52.43.17,1.31.76.74.43-.42-.22-1.24-.76-.74"/>
        <path class="cls-2" d="m116.81,42.59c-.52.43.17,1.31.76.74.43-.42-.22-1.24-.76-.74"/>
        <path class="cls-2" d="m118.36,45.85c-.5.41.16,1.26.73.71.42-.4-.21-1.18-.73-.71"/>
        <path class="cls-2" d="m119.24,47.47c-.26.21.08.65.38.37.22-.21-.11-.62-.38-.37"/>
        <path class="cls-2" d="m118.88,39.1c-.5.41.16,1.26.73.71.42-.4-.21-1.19-.73-.71"/>
        <path class="cls-2" d="m122.82,39.45c-.5.41.16,1.26.73.71.42-.4-.21-1.19-.73-.71"/>
        <path class="cls-2" d="m124.43,46.23c-.26.21.08.65.38.37.22-.21-.11-.62-.38-.37"/>
        <path class="cls-2" d="m121.95,47.27c-.26.21.08.65.38.37.22-.21-.11-.62-.38-.37"/>
        <path class="cls-2" d="m119.98,37.89c-.27.22.09.68.39.39.23-.22-.12-.64-.39-.39"/>
        <path class="cls-2" d="m117.52,39.27c-.27.22.09.68.39.39.23-.22-.12-.64-.39-.39"/>
        <path class="cls-2" d="m116.98,46.02c-.27.22.09.68.39.39.23-.22-.12-.64-.39-.39"/>
        <path class="cls-2" d="m125.66,41.3c-.26.21.08.65.38.37.22-.21-.11-.62-.38-.37"/>
        <path class="cls-2" d="m116.03,41.64c-.26.21.08.65.38.37.22-.21-.11-.62-.38-.37"/>
        <path class="cls-2" d="m124.43,39.63c-.26.21.08.65.38.37.22-.21-.11-.62-.38-.37"/>
        <path class="cls-2" d="m121,38.73c-.4.33.13,1.01.58.57.33-.32-.17-.95-.58-.57"/>
        <path class="cls-2" d="m117.23,44.67c-.4.33.13,1.01.58.57.33-.32-.17-.95-.58-.57"/>
        <path class="cls-2" d="m124.33,44.77c-.4.33.13,1.01.58.57.33-.32-.17-.95-.58-.57"/>
        <path class="cls-2" d="m117.17,40.79c-.4.33.13,1.01.58.57.33-.32-.17-.95-.58-.57"/>
        <path class="cls-2" d="m120.46,46.54c-.4.33.13,1.01.58.57.33-.32-.17-.95-.58-.57"/>
        <path class="cls-2" d="m124.33,40.79c-.4.33.13,1.01.58.57.33-.32-.17-.95-.58-.57"/>
      </g>
      <g>
        <path class="cls-6" d="m121.4,41.16c-1.15.11-1.03,2.05.37,1.8,1.03-.18.87-1.99-.37-1.8"/>
        <path class="cls-6" d="m121.83,43.38c-.9.08-.8,1.59.29,1.4.8-.14.68-1.55-.29-1.4"/>
        <path class="cls-6" d="m119.84,42.58c-1.02.1-.91,1.82.33,1.6.92-.16.78-1.77-.33-1.6"/>
        <path class="cls-6" d="m119.7,42.3c.64,0,.64-1,0-1s-.64,1,0,1h0Z"/>
        <path class="cls-6" d="m120.63,45.42c.64,0,.64-1,0-1s-.64,1,0,1h0Z"/>
        <path class="cls-6" d="m123.09,43.49c.64,0,.64-1,0-1s-.64,1,0,1h0Z"/>
      </g>
    </g>
    <g>
      <g class="cls-10">
        <path class="cls-3" d="m115.85,36.87c.94-1,1.19-1.95,1.59-3.08.37-1.04,1.65-2.1,2.81-2.32,2.06-.48,3.81.62,4.54,1.69,1.05,1.35.54,2.16,1.06,3.44-.3.2-.71.25-1.08.22-.74,0-1.9-.6-2.4-.55-.79-.16-1.08.1-.99.07-.01,0,.06-.04.09-.08.03-.05-.02-.06-.16.03-.14.09-.33.22-.58.41-1.34,1.04-3.58,1.51-4.88.16h0Z"/>
      </g>
      <g class="cls-10">
        <path class="cls-3" d="m127.82,37.86c.98-.57,1.41-1,2.19-1.01,1.68-.04,2.94,2.29,2.28,3.82-.6,1.25-1.28,1.01-2.76,1.64-1.06-.49-1.39-1.4-1.64-1.9-.13-.23-.28-.78-.38-.48-.08.24.18.66.39.69.15.02.2-.13.17-.36-.04-.47-.47-1.27-.24-2.39h0Z"/>
      </g>
      <g class="cls-10">
        <path class="cls-3" d="m129.53,45.04c3.92,2.43.82,7.02-2.99,6.71-.89-.03-1.38-.27-2.08-.64-.33-.17-.78-.2-1.43.12-.47-.53-.45-1.36-.08-2.06.63-1.15,1.88-1.74,2.89-2.12.55-.17,1.1-.43,1.51-.36.07.04.1.25.31.24.78-.12,1.17-1.27,1.88-1.9h0Z"/>
      </g>
      <g class="cls-10">
        <path class="cls-3" d="m116.34,50.34c1.11-.03,1.72-.14,2.08-.32.35-.18.37-.4.33-.4-.12.04-.28.29-.1.51.2.35,1.17.5,1.77,1.47-.22,1.11.02,1.66-.56,2.27-2.27,2.08-6.06-1.08-3.52-3.53h0Z"/>
      </g>
      <g class="cls-10">
        <path class="cls-3" d="m113.97,36.82c-.22.8-.45,1.57.23,1.89.38.08.53.04.53.32.01.25-.1.67-.35,1.22-.27.54-.63,1.24-1.54,2-1.9-.51-2.97-1.2-3.12-3.07-.19-2.19,2.6-4.53,4.24-2.36h0Z"/>
      </g>
      <g class="cls-10">
        <path class="cls-3" d="m112.22,44.41c1.01.58,1.49,1.22,1.89,1.5.39.32.58.14.52.07-.16-.16-.6-.11-.34.31.39.62,1.19,1.29,1.21,2.25-.88.77-1.04,1.37-1.88,1.62-1.59.5-3.52-1.11-3.62-2.73-.13-1.58.69-2.36,2.22-3.03h0Z"/>
      </g>
    </g>
  </g>
  <g id="branch">
    <g>
      <path class="cls-11" d="m112.91,18.21c-.51,4.72-2.64,4.64-3.6.09.86-4.76,2.29-4.59,3.6-.09h0Z"/>
      <path class="cls-11" d="m125.54,21.72c.83-1.24,1.27-1.9,1.71-2.35.42-.44.78-.59,1.14-.52.35.08.69.37.98.98.27.62.54,1.48.41,2.98-.82,1.26-1.25,1.93-1.69,2.38-.43.44-.8.59-1.16.51-.36-.08-.71-.39-1-1-.27-.63-.54-1.48-.39-2.98,0,0-.15,1.49,0,0Z"/>
      <path class="cls-11" d="m109.74,32.82c-1.12,1.02-1.98,1.33-2.69,1.47-.71.12-1.22-.02-1.57-.3-.34-.29-.51-.73-.46-1.39.05-.67.27-1.48.84-2.88,1.23-.89,2.08-1.16,2.76-1.29.68-.12,1.13,0,1.42.24.29.26.41.64.35,1.27-.05.64-.25,1.43-.66,2.88,0,0,.41-1.45,0,0Z"/>
      <path class="cls-11" d="m131.21,36.71c1.48-.03,2.27-.04,2.86.01.58.05.87.19.98.44.1.25.02.61-.34,1.11-.37.5-.93,1.13-2.16,1.96-2.08.38-5.06.68-3.67-1.73.39-.54.99-1.15,2.33-1.8h0Z"/>
      <path class="cls-11" d="m121.84,35.07c1.49,0,2.28-.03,2.88.05.59.07.9.26,1.04.58.13.32.08.77-.27,1.35-.37.57-.94,1.26-2.28,1.94-1.5,0-2.29.03-2.89-.05-.59-.07-.9-.26-1.04-.58-.12-.32-.07-.78.28-1.35.37-.57.94-1.26,2.27-1.94,0,0-1.33.68,0,0Z"/>
      <path class="cls-11" d="m128.55,32.68c-1.42.38-2.16.6-2.73.68-.56.08-.85.02-.97-.17-.11-.19-.05-.51.28-1,.34-.49.85-1.12,2.02-2.02,1.4-.48,2.15-.69,2.73-.77.57-.07.88.02,1.01.24.12.22.07.57-.25,1.08-.34.5-.85,1.15-2.08,1.97,0,0,1.22-.82,0,0Z"/>
      <path class="cls-11" d="m117.6,22.69c-.51-1.38-.82-2.08-.99-2.64-.17-.54-.15-.83.02-.98.18-.14.51-.14,1.06.09.55.24,1.28.62,2.37,1.63.67,1.32,1,2.03,1.15,2.6.3,1.13-.26,1.46-1.34,1.07-.58-.24-1.33-.65-2.28-1.77h0Z"/>
      <path class="cls-11" d="m113.89,32.79c3.26-3.42,4.72-2.17,2.55,1.92-3.54,3.25-4.43,2.34-2.55-1.92h0Z"/>
    </g>
    <g>
      <path class="cls-6" d="m128.24,16.5c-6.82,7.44-11.6,17.06-14.2,26.77-.33,1.25,1.6,1.78,1.93.53,2.5-9.38,7.09-18.71,13.68-25.89.87-.95-.54-2.37-1.42-1.42h0Z"/>
      <path class="cls-6" d="m118.72,13.25c-1.28,2.41-3.21,5.01-2.93,7.89.3,3.14,3.13,4.92,5.52,6.5,1.08.71,2.08-1.02,1.01-1.73-1.81-1.2-4.49-2.67-4.55-5.14s1.63-4.52,2.68-6.51c.6-1.14-1.12-2.15-1.73-1.01h0Z"/>
      <path class="cls-6" d="m118.16,34.6c2.88,1.57,6.58,2.04,9.5.33s4.46-4.59,6.21-7.22c.71-1.08-1.02-2.08-1.73-1.01-1.47,2.22-2.84,4.79-5.13,6.28s-5.43,1.21-7.84-.11c-1.13-.62-2.14,1.11-1.01,1.73h0Z"/>
      <path class="cls-6" d="m117.06,37.28c-1.79-.88-3.71-1.77-5.14-3.21-.7-.71-1.25-1.56-1.25-2.59,0-1.16.53-2.25,1.07-3.25.61-1.14-1.12-2.15-1.73-1.01-.67,1.25-1.26,2.57-1.33,4s.52,2.75,1.43,3.83c1.54,1.83,3.83,2.92,5.94,3.96.48.24,1.08.13,1.37-.36.26-.44.13-1.13-.36-1.37h0Z"/>
      <path class="cls-6" d="m117.15,19.98c-1.35-.68-2.79-1.7-3.64-2.93-.09-.13-.18-.27-.25-.42,0,0-.11-.24-.08-.15.04.1-.04-.13-.05-.15-.05-.14-.08-.29-.1-.44.03.21,0-.2,0-.27,0-.15.01-.31.03-.46-.01.11,0,.06,0-.02.02-.1.04-.2.06-.29.08-.36.17-.72.26-1.07.14-.52-.17-1.09-.7-1.23s-1.09.17-1.23.7c-.2.77-.42,1.57-.43,2.38s.24,1.64.69,2.33c1.04,1.6,2.73,2.89,4.42,3.75.48.24,1.08.13,1.37-.36.26-.45.13-1.12-.36-1.37h0Z"/>
      <path class="cls-6" d="m126.07,35.14c1.49,1.28,3.27,2.31,5.26,2.51s3.84-.84,4.93-2.55c.69-1.09-1.04-2.1-1.73-1.01-.41.64-.86,1.1-1.56,1.4.1-.04,0,0-.05.01-.1.03-.19.06-.29.09-.08.02-.16.04-.25.06-.06.01-.23.03-.08.02-.32.03-.78.02-1,0-1.34-.18-2.75-1-3.82-1.92-.41-.35-1.01-.4-1.42,0-.36.36-.41,1.06,0,1.42h0Z"/>
      <path class="cls-6" d="m124.1,22.87c-.41-.27-.83-.51-1.23-.8-.18-.13.06.05,0,0-.05-.04-.1-.08-.15-.13-.09-.08-.18-.16-.26-.25-.01-.01-.1-.14-.12-.14.09.11.11.14.06.08-.02-.03-.03-.05-.05-.08-.03-.05-.06-.11-.09-.16-.1-.17.06.21,0,.02-.01-.04-.02-.14-.05-.17.04.05.02.27.02.06,0-.05.03-.2,0-.03-.04.19,0-.03.02-.07.03-.11.06-.23.1-.34.02-.04.03-.08.05-.12l-.05.11s.07-.14.09-.19c.12-.25.26-.49.42-.72.07-.11.14-.21.21-.31.03-.04.06-.08.08-.12.14-.19-.12.16-.02.02.17-.22.29-.42.29-.71,0-.25-.11-.54-.29-.71-.36-.33-1.07-.44-1.42,0-.39.5-.77,1.02-1.04,1.6-.32.67-.58,1.43-.37,2.17.38,1.34,1.7,2.01,2.78,2.72.44.29,1.13.1,1.37-.36.26-.5.11-1.06-.36-1.37h0Z"/>
      <path class="cls-6" d="m119.43,31.11c.57.51,1.24.92,2.01,1.03s1.52-.01,2.25-.34c1.21-.54,2.21-1.66,2.75-2.86.22-.48.15-1.1-.36-1.37-.44-.23-1.14-.15-1.37.36-.11.23-.22.46-.36.67-.04.07-.08.13-.13.19-.02.02-.14.2-.06.09s-.06.08-.07.08c-.04.05-.08.1-.13.15-.17.19-.37.36-.56.54-.09.08.14-.1-.01,0-.06.04-.12.09-.19.13-.11.07-.21.13-.32.19-.05.03-.11.05-.17.08-.12.06.23-.07,0,0-.12.04-.23.08-.35.1-.06.01-.12.02-.18.03-.12.03.21,0,.02,0-.12,0-.24,0-.36,0-.24,0,.21.05-.02,0-.05-.01-.1-.02-.14-.03-.07-.02-.14-.04-.22-.06-.18-.05.09.06-.01,0-.12-.06-.24-.12-.36-.2-.06-.04-.12-.08-.18-.12.14.11-.04-.04-.08-.08-.39-.35-1.04-.41-1.42,0-.35.38-.42,1.04,0,1.42h0Z"/>
      <path class="cls-6" d="m109.63,32.98c1.1.39,2.32.92,3.52.79,1.48-.16,2.47-1.21,3.26-2.39.29-.44.1-1.13-.36-1.37-.5-.27-1.06-.11-1.37.36-.1.15-.2.29-.31.44.13-.18-.02.03-.04.05-.05.06-.1.12-.15.17-.09.1-.19.21-.29.3-.05.04-.1.09-.15.13-.14.13.18-.12,0,0-.1.06-.19.13-.29.18-.03.02-.14.05-.15.07.01-.03.25-.09.07-.03-.1.03-.2.06-.3.09-.04,0-.24.04-.04.01s0,0-.05,0c-.1,0-.19,0-.29,0-.05,0-.11,0-.16-.01-.18-.01-.05-.03.04,0-.22-.08-.49-.1-.72-.16-.58-.16-1.14-.37-1.7-.57-.49-.18-1.12.2-1.23.7-.13.56.17,1.04.7,1.23h0Z"/>
    </g>
    <g>
      <g>
        <g>
          <path class="cls-6" d="m114.89,11.03c.46-.57.88-1.17,1.29-1.79.07-.11.11-.24.12-.37.03-.13.02-.27-.02-.4-.06-.23-.24-.48-.46-.6-.23-.12-.51-.18-.77-.1s-.45.23-.6.46c-.31.47-.63.94-.97,1.39l.16-.2c-.05.07-.1.13-.15.2-.1.09-.17.2-.21.32-.06.12-.09.25-.09.39,0,.25.11.54.29.71s.44.31.71.29c.25-.01.54-.09.71-.29h0Z"/>
          <path class="cls-6" d="m114.89,10.72c.2-.3.35-.63.46-.97.05-.13.08-.27.11-.41.04-.22.07-.45.07-.68,0-.26-.11-.52-.29-.71-.17-.17-.46-.3-.71-.29s-.53.1-.71.29-.3.44-.29.71c0,.1,0,.2-.02.31l.04-.27c-.03.25-.11.48-.2.71l.1-.24c-.08.19-.17.36-.29.53-.07.11-.11.24-.12.37-.03.13-.02.27.02.4.06.23.24.48.46.6.23.12.51.18.77.1s.45-.23.6-.46h0Z"/>
          <path class="cls-6" d="m114.7,11.27c.57-.3,1.06-.7,1.6-1.05.22-.14.39-.35.46-.6s.04-.56-.1-.77-.34-.4-.6-.46-.54-.04-.77.1c-.54.34-1.03.75-1.6,1.05-.22.11-.4.37-.46.6s-.04.56.1.77.34.4.6.46c.27.06.52.03.77-.1h0Z"/>
        </g>
        <g>
          <path class="cls-6" d="m121.94,11.64l1.18-1.77c.14-.21.17-.54.1-.77s-.24-.48-.46-.6c-.23-.12-.51-.18-.77-.1s-.45.23-.6.46l-1.18,1.77c-.14.21-.17.54-.1.77s.24.48.46.6c.23.12.51.18.77.1s.45-.23.6-.46h0Z"/>
          <path class="cls-6" d="m121.83,11.58c.11-.2.2-.42.26-.65s.08-.45.1-.68c.03-.3.01-.6.02-.9,0-.25-.12-.53-.29-.71s-.46-.3-.71-.29-.53.1-.71.29-.29.43-.29.71c0,.35,0,.7-.04,1.05l.04-.27c-.03.18-.07.36-.14.53l.1-.24s-.04.1-.07.14c-.12.24-.17.51-.1.77.06.23.24.48.46.6.23.12.51.18.77.1.24-.08.48-.23.6-.46h0Z"/>
          <path class="cls-6" d="m121.89,11.92l.02-.02-.2.16c.5-.39,1.06-.7,1.63-.99.22-.11.4-.37.46-.6s.04-.56-.1-.77-.34-.4-.6-.46c-.27-.06-.52-.03-.77.1-.3.15-.59.31-.88.49-.34.21-.66.44-.98.68-.1.09-.17.2-.21.32-.06.12-.09.25-.09.39,0,.25.11.54.29.71s.44.31.71.29l.27-.04c.17-.05.32-.13.44-.26h0Z"/>
        </g>
        <g>
          <path class="cls-6" d="m124.75,16.91c.37-.56.69-1.15,1.06-1.71.14-.21.17-.53.1-.77s-.24-.48-.46-.6c-.23-.12-.51-.18-.77-.1s-.45.23-.6.46c-.37.56-.69,1.15-1.06,1.71-.14.21-.17.53-.1.77s.24.48.46.6c.23.12.51.18.77.1s.45-.23.6-.46h0Z"/>
          <path class="cls-6" d="m124.84,16.37c0-.18.02-.37.05-.55l-.04.27c.05-.37.13-.72.21-1.08.06-.26.04-.54-.1-.77-.12-.21-.36-.41-.6-.46-.26-.06-.54-.05-.77.1-.21.14-.4.34-.46.6-.15.62-.28,1.26-.3,1.9,0,.25.12.53.29.71s.46.3.71.29.53-.1.71-.29.28-.43.29-.71h0Z"/>
          <path class="cls-6" d="m124.12,17.42c.15-.02.3-.06.44-.12.21-.09.41-.18.6-.29.25-.15.49-.32.76-.43l-.24.1s.06-.02.09-.04c.25-.09.46-.23.6-.46.13-.21.18-.53.1-.77s-.23-.48-.46-.6-.52-.19-.77-.1c-.3.11-.58.25-.84.42-.2.12-.39.25-.61.35l.24-.1c-.14.06-.29.1-.44.12-.13.03-.24.09-.34.18-.11.07-.19.16-.26.28-.13.21-.18.53-.1.77s.23.48.46.6l.24.1c.18.05.35.05.53,0h0Z"/>
        </g>
        <g>
          <path class="cls-6" d="m132.59,15.27c.55-.6,1.1-1.2,1.74-1.71.1-.09.17-.2.21-.32.06-.12.09-.25.09-.39,0-.25-.11-.54-.29-.71s-.44-.31-.71-.29l-.27.04c-.17.05-.32.13-.44.26-.64.5-1.19,1.11-1.74,1.71-.18.2-.29.44-.29.71,0,.25.11.54.29.71s.44.31.71.29.53-.1.71-.29h0Z"/>
          <path class="cls-6" d="m132.71,15.12c.37-.67.56-1.41.86-2.12l-.1.24s.04-.09.06-.14c.07-.11.11-.24.12-.37.03-.13.02-.27-.02-.4-.06-.23-.24-.48-.46-.6-.23-.12-.51-.18-.77-.1-.23.08-.49.23-.6.46-.26.58-.44,1.2-.69,1.79l.1-.24c-.07.16-.14.32-.23.47-.13.23-.17.51-.1.77.06.23.24.48.46.6.23.12.51.18.77.1.24-.08.47-.23.6-.46h0Z"/>
          <path class="cls-6" d="m132.57,15.41s.09-.08.14-.12l-.2.16c.22-.17.45-.31.7-.41l-.24.1c.41-.17.85-.24,1.29-.31.23-.03.49-.27.6-.46.13-.21.18-.53.1-.77s-.23-.48-.46-.6l-.24-.1c-.18-.05-.35-.05-.53,0-.39.06-.78.12-1.15.25-.25.09-.49.19-.72.32-.25.15-.49.33-.71.52-.19.16-.29.47-.29.71s.11.54.29.71.44.31.71.29l.27-.04c.17-.05.32-.13.44-.26h0Z"/>
        </g>
        <g>
          <path class="cls-6" d="m128.26,26.09l.87-1.31c.07-.11.11-.24.12-.37.03-.13.02-.27-.02-.4-.03-.13-.09-.24-.18-.34-.07-.11-.16-.19-.28-.26-.23-.12-.51-.18-.77-.1l-.24.1c-.15.09-.27.21-.36.36l-.87,1.31c-.07.11-.11.24-.12.37-.03.13-.02.27.02.4.03.13.09.24.18.34.07.11.16.19.28.26.23.12.51.18.77.1l.24-.1c.15-.09.27-.21.36-.36h0Z"/>
          <path class="cls-6" d="m128.28,25.87c.19-.55.26-1.13.24-1.71,0-.26-.11-.52-.29-.71-.17-.17-.46-.3-.71-.29s-.53.1-.71.29-.3.44-.29.71c0,.24,0,.49-.03.73l.04-.27c-.03.24-.1.48-.18.71-.04.13-.05.27-.02.4,0,.13.05.26.12.37.12.21.36.41.6.46.26.06.54.05.77-.1l.2-.16c.12-.12.21-.27.26-.44h0Z"/>
          <path class="cls-6" d="m127.61,26.75c.12-.02.23-.06.34-.11.2-.08.39-.16.58-.27.25-.14.48-.29.71-.46.12-.06.21-.15.28-.26.09-.1.15-.21.18-.34.04-.13.05-.27.02-.4,0-.13-.05-.26-.12-.37-.14-.21-.34-.4-.6-.46s-.56-.05-.77.1c-.32.23-.66.46-1.02.61l.24-.1c-.12.05-.24.09-.37.12-.13.03-.24.09-.34.18-.11.07-.19.16-.26.28-.07.11-.11.24-.12.37-.03.13-.02.27.02.4.08.24.23.48.46.6l.24.1c.18.05.35.05.53,0h0Z"/>
        </g>
        <g>
          <path class="cls-6" d="m135.77,25.07c.52-.66,1.09-1.28,1.56-1.98.14-.21.17-.54.1-.77s-.24-.48-.46-.6c-.23-.12-.51-.18-.77-.1s-.45.23-.6.46c-.11.16-.22.32-.34.48l.16-.2c-.34.44-.71.86-1.06,1.3-.1.09-.17.2-.21.32-.06.12-.09.25-.09.39,0,.25.11.54.29.71s.44.31.71.29c.25-.01.55-.09.71-.29h0Z"/>
          <path class="cls-6" d="m135.54,25.07c.15-.2.3-.39.41-.61s.2-.46.28-.7c.1-.34.16-.68.23-1.02.06-.26.04-.53-.1-.77-.12-.21-.36-.41-.6-.46-.26-.06-.54-.05-.77.1-.21.14-.41.34-.46.6-.1.46-.17.92-.35,1.36l.1-.24c-.08.18-.17.35-.29.51l.16-.2-.02.03c-.1.09-.17.2-.21.32-.06.12-.09.25-.09.39,0,.25.11.54.29.71s.44.31.71.29c.25-.01.55-.09.71-.29h0Z"/>
          <path class="cls-6" d="m135.37,25.4c.07-.03.14-.07.22-.1l-.24.1c.66-.28,1.38-.47,1.97-.89.12-.06.21-.15.28-.26.09-.1.15-.21.18-.34.07-.24.04-.56-.1-.77s-.34-.4-.6-.46-.56-.05-.77.1c-.23.16-.47.29-.73.4l.24-.1c-.48.2-.98.36-1.45.59-.22.1-.4.38-.46.6-.07.24-.04.56.1.77s.34.4.6.46l.27.04c.18,0,.35-.05.51-.14h0Z"/>
        </g>
        <g>
          <path class="cls-6" d="m137.52,32.03c.29-.31.53-.66.73-1.04.16-.29.3-.59.48-.87.14-.21.17-.53.1-.77s-.24-.48-.46-.6c-.23-.12-.51-.18-.77-.1s-.45.23-.6.46c-.32.48-.52,1.03-.88,1.49l.16-.2c-.06.07-.12.15-.18.21-.18.19-.29.44-.29.71,0,.25.11.54.29.71s.44.31.71.29.52-.1.71-.29h0Z"/>
          <path class="cls-6" d="m137.69,31.4c0-.23.02-.46.05-.68l-.04.27c.05-.36.14-.71.28-1.05.04-.13.05-.27.02-.4,0-.13-.05-.26-.12-.37-.12-.21-.36-.41-.6-.46-.26-.06-.54-.05-.77.1l-.2.16c-.12.12-.21.27-.26.44-.26.63-.34,1.33-.37,2,0,.25.12.53.29.71s.46.3.71.29.53-.1.71-.29.28-.43.29-.71h0Z"/>
          <path class="cls-6" d="m137.61,32.24c.09-.08.19-.15.28-.22l-.2.16c.41-.32.85-.61,1.32-.82.12-.06.21-.15.28-.26.09-.1.15-.21.18-.34.07-.24.04-.56-.1-.77s-.34-.4-.6-.46l-.27-.04c-.18,0-.35.05-.51.14-.66.3-1.25.74-1.8,1.2-.1.09-.17.2-.21.32-.06.12-.09.25-.09.39,0,.25.11.54.29.71s.44.31.71.29l.27-.04c.17-.05.32-.13.44-.26h0Z"/>
        </g>
        <g>
          <path class="cls-6" d="m117.84,28.42l.94-1.41c.07-.11.11-.24.12-.37.03-.13.02-.27-.02-.4-.06-.23-.24-.48-.46-.6-.23-.12-.51-.18-.77-.1l-.24.1c-.15.09-.27.21-.36.36l-.94,1.41c-.07.11-.11.24-.12.37-.03.13-.02.27.02.4.06.23.24.48.46.6.23.12.51.18.77.1l.24-.1c.15-.09.27-.21.36-.36h0Z"/>
          <path class="cls-6" d="m117.76,28.44c.11-.17.19-.37.27-.56.05-.12.08-.25.1-.38.06-.34.09-.68.06-1.02,0-.14-.02-.27-.09-.39-.04-.12-.11-.23-.21-.32-.17-.17-.46-.3-.71-.29s-.53.1-.71.29c-.17.18-.32.45-.29.71.02.21.02.43,0,.64l.04-.27c-.03.19-.07.38-.15.55l.1-.24c-.04.09-.09.18-.14.27-.07.11-.11.24-.12.37-.03.13-.02.27.02.4.06.23.24.48.46.6.23.12.51.18.77.1s.45-.23.6-.46h0Z"/>
          <path class="cls-6" d="m117.52,28.96c.44-.32.88-.63,1.35-.91.22-.12.39-.36.46-.6.04-.13.05-.27.02-.4,0-.13-.05-.26-.12-.37-.14-.21-.34-.4-.6-.46s-.53-.04-.77.1c-.47.27-.91.59-1.35.91-.12.06-.21.15-.28.26-.09.1-.15.21-.18.34-.04.13-.05.27-.02.4,0,.13.05.26.12.37.14.21.34.4.6.46s.56.05.77-.1h0Z"/>
        </g>
        <g>
          <path class="cls-6" d="m114.33,23.67s.03-.07.04-.11l-.1.24c.11-.26.24-.51.37-.76.17-.32.32-.64.45-.97.04-.13.05-.27.02-.4,0-.13-.05-.26-.12-.37-.12-.21-.36-.41-.6-.46-.26-.06-.54-.05-.77.1l-.2.16c-.12.12-.21.27-.26.44-.01.04-.03.07-.04.11l.1-.24c-.11.26-.24.51-.37.76-.17.32-.32.64-.45.97-.04.13-.05.27-.02.4,0,.13.05.26.12.37.12.21.36.41.6.46.26.06.54.05.77-.1l.2-.16c.12-.12.21-.27.26-.44h0Z"/>
          <path class="cls-6" d="m114.06,23.95c.08-.13.14-.28.2-.42.03-.07.05-.14.06-.22.04-.23.07-.46.04-.69s-.06-.45-.11-.67c-.03-.15-.07-.29-.1-.44-.05-.24-.26-.48-.46-.6-.21-.13-.53-.18-.77-.1s-.48.23-.6.46l-.1.24c-.05.18-.05.35,0,.53.05.27.13.53.17.79l-.04-.27c.02.15.03.3,0,.45l.04-.27c-.01.09-.04.17-.07.26l.1-.24c-.03.06-.06.12-.09.17-.14.21-.17.53-.1.77s.24.48.46.6c.23.12.51.18.77.1s.45-.23.6-.46h0Z"/>
          <path class="cls-6" d="m113.99,24.36c.16-.13.32-.27.49-.4l-.2.16c.3-.23.61-.44.95-.59l-.24.1c.05-.02.1-.04.15-.06.13-.03.24-.09.34-.18.11-.07.19-.16.26-.28.13-.21.18-.53.1-.77s-.23-.48-.46-.6-.52-.19-.77-.1c-.38.14-.74.31-1.07.55s-.65.5-.97.76c-.1.09-.17.2-.21.32-.06.12-.09.25-.09.39,0,.25.11.54.29.71s.44.31.71.29l.27-.04c.17-.05.32-.13.44-.26h0Z"/>
        </g>
      </g>
      <g>
        <path class="cls-13" d="m130.11,13.64c-3.81.18-5.26,6.75-.54,6.15,3.49-.44,4.71-6.59.54-6.15"/>
        <path class="cls-13" d="m119.26,10.67c-3.66,1.07-3.52,7.81.93,6.1,3.28-1.26,3.02-7.52-.93-6.1"/>
        <path class="cls-13" d="m133.09,23.86c-3.73.83-4.03,7.56.53,6.15,3.36-1.04,3.51-7.3-.53-6.15"/>
        <path class="cls-13" d="m111.38,23.09c-3.57,1.35-2.91,8.05,1.4,6.01,3.18-1.51,2.44-7.73-1.4-6.01"/>
        <path class="cls-13" d="m112.79,10.11c-2.93.86-2.82,6.25.74,4.88,2.63-1.01,2.42-6.02-.74-4.88"/>
        <path class="cls-13" d="m135.36,31.1c-2.93.86-2.82,6.25.74,4.88,2.63-1.01,2.42-6.02-.74-4.88"/>
        <path class="cls-13" d="m122.57,16.06c-2.55.75-2.45,5.43.65,4.25,2.28-.87,2.1-5.23-.65-4.25"/>
        <path class="cls-13" d="m125.98,25.48c-2.55.75-2.45,5.43.65,4.25,2.28-.87,2.1-5.23-.65-4.25"/>
        <path class="cls-13" d="m115.66,27.58c-2.55.75-2.45,5.43.65,4.25,2.28-.87,2.1-5.23-.65-4.25"/>
      </g>
      <g>
        <path class="cls-14" d="m131.45,15.31c-.88.04-1.21,1.55-.12,1.42.8-.1,1.08-1.52.12-1.42"/>
        <path class="cls-14" d="m121.18,12.35c-.84.25-.81,1.8.21,1.4.76-.29.7-1.73-.21-1.4"/>
        <path class="cls-14" d="m134.85,25.55c-.86.19-.93,1.74.12,1.42.77-.24.81-1.68-.12-1.42"/>
        <path class="cls-14" d="m113.48,24.75c-.82.31-.67,1.85.32,1.38.73-.35.56-1.78-.32-1.38"/>
        <path class="cls-14" d="m114.31,11.38c-.67.2-.65,1.44.17,1.12.6-.23.56-1.38-.17-1.12"/>
        <path class="cls-14" d="m136.88,32.38c-.67.2-.65,1.44.17,1.12.6-.23.56-1.38-.17-1.12"/>
        <path class="cls-14" d="m123.93,17.3c-.59.17-.56,1.25.15.98.53-.2.48-1.2-.15-.98"/>
        <path class="cls-14" d="m127.33,26.72c-.59.17-.56,1.25.15.98.53-.2.48-1.2-.15-.98"/>
        <path class="cls-14" d="m117.02,28.82c-.59.17-.56,1.25.15.98.53-.2.48-1.2-.15-.98"/>
      </g>
    </g>
  </g>
  <g id="flower_3" data-name="flower 3">
    <g>
      <path class="cls-7" d="m50.36,28.29c-2.37-2.28-2.82-9.13,1.58-9.36,4.18-.23,5.08,5.02,5.19,8.1,1.02-2.51,2.93-5.59,6.09-5.59,1.92.11,3.27,1.48,3.61,3.42.56,2.51-1.13,6.05-3.72,6.85,3.84-.8,10.27,3.31,6.32,7.65-1.92,2.17-6.43,1.37-8.24-.8,2.16,3.98,1.33,8.85-2.48,9.25-4.47.47-5.53-3.77-5.53-6.96-1.26,4.36-6.89,6.62-9.14,2.85-1.81-3.2-.17-7.17,4.85-8.56-3.05.23-9.84-.36-7.9-6.28,1.25-3.81,6.86-2.83,9.37-.57"/>
      <path class="cls-4" d="m52.77,30.59c-1.29-1.25-1.54-4.99.86-5.11,2.28-.12,2.77,2.74,2.83,4.42.55-1.37,1.6-3.05,3.33-3.05,1.05.06,1.79.81,1.97,1.87.31,1.37-.62,3.3-2.03,3.74,2.1-.44,5.61,1.81,3.45,4.18-1.05,1.18-3.51.75-4.5-.44,1.18,2.17.73,4.83-1.36,5.05-2.44.26-3.02-2.06-3.02-3.8-.69,2.38-3.76,3.62-4.99,1.56-.99-1.74-.09-3.92,2.65-4.67-1.66.12-5.37-.2-4.31-3.43.68-2.08,3.75-1.55,5.12-.31"/>
    </g>
    <g>
      <path class="cls-6" d="m53.83,33.8c-.72-.06-2.56-.9-2.22-1.93.42-1.17,2.36.48,2.8.84-.66-1.22-1.05-2.81-.3-3.12,1.17-.53,1.51,2.11,1.54,2.69.08-.61.81-3.14,1.88-2.41.72.5-.6,2.27-.96,2.72.31-.19,2.08-1.89,2.7-1.09.56.72-1.89,1.77-2.48,1.8.94,0,3.11-.61,2.98.61-.21.84-1.66.8-3.04.11.28.17,2.5,1.46,1.26,2.24-.59.37-1.48-1.12-1.87-1.73.17.67,1.08,2.29.18,2.62-1.12.42-1.12-1.56-1.18-2.26-.66,3.14-4.01,3.64-1.01-.46-2.95,2.39-4.32-.27-.3-.64"/>
      <g>
        <path class="cls-2" d="m55.57,32.29c-.82.08-.73,1.45.26,1.28.73-.13.62-1.41-.26-1.28"/>
        <path class="cls-2" d="m55.87,33.86c-.64.06-.57,1.13.2.99.57-.1.48-1.1-.2-.99"/>
        <path class="cls-2" d="m54.46,33.29c-.73.07-.65,1.29.23,1.14.65-.11.55-1.26-.23-1.14"/>
      </g>
    </g>
  </g>
  <g id="flower_2" data-name="flower 2">
    <g>
      <path class="cls-14" d="m107.57,15.91c-3.13-8.93,11.46-10.18,11.13-.62,4.29-8.31,16.81,1.54,8.43,6.94,8.7-1.39,8.17,12.91-.16,11.42,5.99,7.15-6.17,13.12-9.7,6.02-.21,8.33-13.47,7.1-10.97-.31-5.57,6.07-14.05-3.39-6.84-7.1-6.81,0-7.18-9.72.48-9.72-6.84-5.81,3.23-12.96,7.63-6.63"/>
      <path class="cls-9" d="m110.21,20.59c-1.81-5.18,6.65-5.9,6.46-.36,2.49-4.82,9.75.89,4.89,4.03,5.04-.81,4.74,7.49-.09,6.62,3.47,4.15-3.58,7.61-5.63,3.49-.12,4.83-7.81,4.12-6.37-.18-3.23,3.52-8.15-1.97-3.97-4.12-3.95,0-4.16-5.64.28-5.64-3.97-3.37,1.88-7.52,4.43-3.85"/>
    </g>
    <g>
      <g>
        <path class="cls-14" d="m110.23,22.55c1.34-.66,2.34-2.15,3.2-3.42.68.51,1.35,1.05,2,1.68.64.63,1.27,1.34,1.78,2.3l1.18,2.2c3.68,7.48-6.92,13.16-11.11,5.95-1.72-3.19-.35-7.22,2.94-8.71h0Z"/>
        <path class="cls-14" d="m108.54,26.86c-.36-1.78-.19-3.38-.88-5.05,1.7-.49,3.76-.13,5.47-.25,2.69-.17,5.02,1.87,5.19,4.56s-1.87,5.02-4.56,5.19c-2.7.19-4.93-1.86-5.21-4.46h0Z"/>
        <path class="cls-14" d="m109.29,30.86l-3.85-3.6,3.85-3.41c4.83-4.22,11.11,2.68,6.45,7.09-1.86,1.65-4.67,1.57-6.45-.08h0Z"/>
        <path class="cls-14" d="m112.43,32.79c-1.76-.02-3.68,0-5.35-.54.63-1.56.67-3.15.8-4.79.19-2.75,2.57-4.83,5.32-4.65,2.75.19,4.83,2.57,4.65,5.32-.18,2.81-2.66,4.85-5.41,4.66h0Z"/>
        <path class="cls-14" d="m116.35,31.24l-3.6,3.88-3.41-3.88c-4.19-4.84,2.72-11.06,7.09-6.4,1.63,1.85,1.54,4.62-.09,6.4h0Z"/>
        <path class="cls-14" d="m118.46,27.41c.68,1.1.8,2.08.89,3.23.05.98,0,1.92-.15,2.82-1.24-.42-2.49-.69-3.74-.6-.37.04-.73.13-.9.37-3.77-2.67.01-8.29,3.91-5.81h0Z"/>
        <path class="cls-14" d="m118.43,23.95c.98,1.22,2.94,2.23,3.75,3.69-1.63.84-2.22,2.22-3.75,3.32,0,0-1.18.85-1.18.85-2.49,1.8-5.96,1.24-7.76-1.25s-1.24-5.96,1.25-7.76c2.45-1.77,5.87-1.25,7.68,1.15h0Z"/>
        <path class="cls-14" d="m114.71,21.08c1.07,1.13,3.25,0,4.68.18-.16.87-.03,1.66-.02,2.56,0,.88-.14,1.99-.88,3.17-3.95,2.39-7.61-3.31-3.78-5.9h0Z"/>
      </g>
      <path class="cls-6" d="m112.06,23.82c-.9-2.57,3.3-2.93,3.21-.18,1.24-2.39,4.84.44,2.43,2,2.5-.4,2.35,3.72-.05,3.29,1.73,2.06-1.78,3.78-2.79,1.73-.06,2.4-3.88,2.04-3.16-.09-1.6,1.75-4.05-.98-1.97-2.04-1.96,0-2.07-2.8.14-2.8-1.97-1.67.93-3.73,2.2-1.91"/>
      <g>
        <path class="cls-2" d="m111.4,27.02c.19-.73,1.47-.46,1.16.42-.23.65-1.42.36-1.16-.42"/>
        <path class="cls-2" d="m112.31,25.28c.21-.8,1.6-.5,1.27.46-.25.71-1.55.39-1.27-.46"/>
        <path class="cls-2" d="m113.35,26.9c.22-.87,1.74-.54,1.38.5-.27.76-1.68.43-1.38-.5"/>
        <path class="cls-2" d="m114.23,25.33c.19-.73,1.47-.46,1.16.42-.23.65-1.42.36-1.16-.42"/>
        <path class="cls-2" d="m112.42,28.56c.21-.8,1.6-.5,1.27.46-.25.71-1.55.39-1.27-.46"/>
        <path class="cls-2" d="m115.35,27.17c.2-.75,1.49-.47,1.18.43-.23.66-1.44.38-1.18-.43"/>
        <path class="cls-2" d="m114.46,28.66c.19-.73,1.47-.46,1.16.42-.22.65-1.42.36-1.16-.42"/>
        <path class="cls-2" d="m116.31,28.73c.14-.56,1.12-.35.89.32-.17.49-1.08.28-.89-.32"/>
        <path class="cls-2" d="m115.75,25.36c.16-.61,1.22-.38.96.35-.19.53-1.17.3-.96-.35"/>
        <path class="cls-2" d="m113.8,29.95c.12-.45.9-.28.71.26-.14.39-.87.22-.71-.26"/>
        <path class="cls-2" d="m113.62,24.16c.12-.49.97-.3.77.28-.15.43-.94.24-.77-.28"/>
        <path class="cls-2" d="m111.09,28.54c.14-.56,1.12-.35.89.32-.17.49-1.08.28-.89-.32"/>
        <path class="cls-2" d="m110.74,25.7c.16-.61,1.22-.38.96.35-.19.54-1.17.3-.96-.35"/>
        <path class="cls-2" d="m117.2,26.85c.09-.36.72-.22.57.21-.11.32-.69.18-.57-.21"/>
        <path class="cls-2" d="m111.98,24.15c.09-.36.72-.22.57.21-.11.32-.69.18-.57-.21"/>
        <path class="cls-2" d="m115.16,24.14c.09-.36.72-.22.57.21-.11.32-.69.18-.57-.21"/>
        <path class="cls-2" d="m110.24,27.2c.09-.36.72-.22.57.21-.11.32-.69.18-.57-.21"/>
      </g>
    </g>
  </g>
  <g id="flower_1" data-name="flower 1">
    <path class="cls-13" d="m28.45,36.7c-4.02-3.23-11.81-12.27-6.49-15,4.84-2.48,8.96,10.47,10.2,13.28-.72-4.84-.18-18.38,6.33-15.31,4.65,2.2-.15,12.81-2.78,15.94,1.24-1.87,12.41-13.29,15.14-6.09,2.17,5.74-8.81,7.66-12.67,8.12,3.09-.16,15.45-.31,13.29,5.78-.93,2.66-6.02,1.41-8.34.62-2.01-.94-2.61-1.03-5.56-2.97,5,3.96,12,11.46,5.25,14.37-4.45,1.92-7.88-9.69-8.03-12.97,0,3.59,1.7,18.28-6.33,15-5.56-2.34.62-11.72,2.01-15.15-3.08,3.73-9.89,13.44-13.59,10-4.94-4.37,3.35-9.69,10.97-12.19-4.54.97-15.65,2.6-13.75-4.22,1.48-5.3,9.82-.74,14.37.78"/>
    <g>
      <g>
        <path class="cls-14" d="m31.28,33.7c1.56-1.9,3.11-3.73,4.64-5.48.39,2.34.79,4.6,1.22,6.79l-5.86-1.32h0Z"/>
        <path class="cls-14" d="m35.45,44.67c-1.37,1.25-2.55,3.16-3.84,4.87-.67-2.04-1.55-3.93-1.97-6.36l5.82,1.49h0Z"/>
        <path class="cls-14" d="m38.09,40.12c1.42,1.82,1.09,3.52,1.52,5.48.11.56.21,1.15.2,1.7-.65-.48-1.43-.81-2.15-1.15-.72-.42-1.47-.93-2.18-1.2-.42-.16-.87-.25-1-.03l3.61-4.8h0Z"/>
        <path class="cls-14" d="m38.53,36.48c1.18,1.42,3.86,2.35,5.12,3.91-2.46.26-3.87,1.6-6.5,1.93,0,0,1.38-5.84,1.38-5.84h0Z"/>
        <path class="cls-14" d="m35.24,34.25c2.51-.46,5.12-.87,7.64-.52-1.81,1.54-3.1,3.53-4.3,5.51,0,0-3.33-4.99-3.33-4.99h0Z"/>
        <path class="cls-14" d="m27.92,37.27c-.31-2.24-.65-4.53-1.03-6.86,1.98,1.13,3.99,2.31,6.03,3.54l-5,3.33h0Z"/>
        <path class="cls-14" d="m28.51,41.4c-2.52-.71-4.5-1.95-6.5-3.4,2.03-.56,4.27-1.32,5.85-2.57,0,0,.65,5.97.65,5.97h0Z"/>
        <path class="cls-14" d="m30.58,44.18c-2.43.42-4.58.36-6.81.67,1.09-1.97,2.56-3.84,3.47-5.67l3.33,4.99h0Z"/>
        <path class="cls-14" d="m33.91,44.38c-4.98,3.29-3.18,4.02-5.75-1.74,0,0,5.75,1.74,5.75,1.74h0Z"/>
        <path class="cls-14" d="m36.37,42.77c-.09,1.35-.64,2.12-1.14,2.76-.51.64-1.06,1.12-1.54,1.72-.85-.79-1.72-2.84-2.99-2.49,0,0,5.67-1.98,5.67-1.98h0Z"/>
        <path class="cls-14" d="m38.19,41.7c-.16,1.81-.73,3.23-1.18,4.72-1.38-.7-2.78-1.54-4.08-1.83l5.26-2.89h0Z"/>
        <path class="cls-14" d="m39.07,39.66c.69,1.91.03,3.16.43,4.94-1.4.13-3.27-.96-4.55-.57,0,0,4.12-4.37,4.12-4.37h0Z"/>
        <path class="cls-14" d="m38.24,37.45c1.28,1.29,2.38,2.7,3.12,4.19-1.62.32-3.06.95-4.35,1.69l1.23-5.88h0Z"/>
        <path class="cls-14" d="m37.93,35.68c.84,1.08,2.28,2,3.54,2.99-1.26,1-2.36,2.12-4.04,2.99l.5-5.98h0Z"/>
        <path class="cls-14" d="m34.71,33.45c6.35.44,4.77-.86,3.57,4.83,0,0-3.57-4.83-3.57-4.83h0Z"/>
        <path class="cls-14" d="m36.33,34.63c1.46.5,3.39.71,4.88,1.5-1.16,1.22-1.67,2.62-2.69,4.1l-2.19-5.59h0Z"/>
        <path class="cls-14" d="m30.06,34.04c1-.9,1.85-2.61,3.16-3.48.72,1.46,1.9,2.11,2.85,3.48,0,0-6,0-6,0h0Z"/>
        <path class="cls-14" d="m32.33,33.49c1.61-1.15,3.04-1.24,4.42-1.94.45,1.48.42,3.28,1.1,4.3l-5.52-2.36h0Z"/>
        <path class="cls-14" d="m28.44,35.81c.6-1.18.62-2.93.89-4.52,1.48.64,3.01.97,4.62,2.13l-5.51,2.39h0Z"/>
        <path class="cls-14" d="m27.56,38.23c-.46-5.88-1.78-4.56,3.96-4.52,0,0-3.96,4.52-3.96,4.52h0Z"/>
        <path class="cls-14" d="m27.86,40.37c-1.25-1.27-2.33-2.54-3.72-3.62,1.52-.93,3.3-1.57,4.9-2.27l-1.18,5.89h0Z"/>
        <path class="cls-14" d="m28.59,42.27c-1.62-.65-3.26-1.39-4.56-2.51,1.31-.89,2.31-2.1,3.23-3.34,0,0,1.33,5.86,1.33,5.86h0Z"/>
        <path class="cls-14" d="m29.74,43.56c-5.97-1.77-4.72-.24-2.58-5.42,0,0,2.58,5.42,2.58,5.42h0Z"/>
        <path class="cls-14" d="m31.43,44.76c-5.75.23-4.63,1.79-4.11-4.38,0,0,4.11,4.38,4.11,4.38h0Z"/>
      </g>
      <path class="cls-12" d="m29.53,35.18c-5.13,4.23,1.67,13.03,7.51,7.37,4.31-4.18-2.23-12.27-7.51-7.37"/>
      <g>
        <path class="cls-8" d="m29.7,39.8c-.91,1.1.95,2.61,1.95,1.18.74-1.06-1.04-2.43-1.95-1.18"/>
        <path class="cls-8" d="m32.45,38.65c-.66.81.7,1.93,1.43.87.53-.78-.76-1.79-1.43-.87"/>
        <path class="cls-8" d="m32.09,35.89c-.98,1.19,1.03,2.83,2.11,1.28.8-1.14-1.13-2.63-2.11-1.28"/>
        <path class="cls-8" d="m34.89,39.55c-.91,1.1.95,2.61,1.95,1.18.73-1.05-1.04-2.43-1.95-1.18"/>
        <path class="cls-8" d="m35.04,36.97c-.75.92.8,2.2,1.63,1,.61-.88-.87-2.04-1.63-1"/>
        <path class="cls-8" d="m29.43,37.1c-.75.92.8,2.2,1.63,1,.61-.88-.87-2.04-1.63-1"/>
        <path class="cls-8" d="m32.36,41.21c-.75.92.8,2.2,1.63,1,.61-.88-.87-2.04-1.63-1"/>
      </g>
    </g>
  </g>
</svg>