<?xml version="1.0" encoding="UTF-8"?>
<svg id="Indie_-_shirt" data-name="Indie - shirt" xmlns="http://www.w3.org/2000/svg" viewBox="0 0 240 232.34">
  <defs>
    <style>
      .cls-1 {
        fill: none;
        stroke: #d7a137;
      }

      .cls-1, .cls-2 {
        stroke-miterlimit: 10;
      }

      .cls-2 {
        fill: #8ea15f;
        stroke: #469163;
      }
    </style>
  </defs>
  <path id="Shirt" class="cls-2" d="m143.72,18.4c-2.65,17.97-14.39,34.36-30.54,42.65-10.9-12.97-16.17-30.52-14.67-46.74-13.15,1.87-27.19,4.16-36.88,13.24-12.93,12.12-13.83,31.93-20.2,48.47-4.73,12.3-12.71,23.08-18.39,34.97-8.35,17.48-11.74,37.32-22.41,53.49,15.65,17.51,26,39.71,29.36,62.95.38-6.28.77-12.56,1.15-18.85.64-10.55,1.32-21.27,4.87-31.23,1.99-5.58,4.84-10.8,7.46-16.11,12.64-25.62,19.99-53.47,25.75-79.87,4.1,13.11,3.33,27.31.47,40.74s-7.76,26.33-11.91,39.41c-5.31,16.72-9.43,33.82-11.93,50.56,4.74,2.1,9.3,4.59,14.1,6.53,16.46,6.63,34.87,6.31,52.49,4.26,22.15-2.58,44.64-8.05,62.71-21.13-4.04-22.37-10.58-44.76-23.47-63.48-3.39-4.92-7.2-9.56-10.15-14.75-.58-1.02-1.14-2.13-1.04-3.3.1-1.16.83-2.16,1.52-3.1,8.9-12.04,15.82-25.53,20.13-39.8,7.73,4.01,10.85,13.31,16.69,19.77,5.87,6.49,14.31,9.91,22.44,13.12,1.5.59,3.06,1.2,4.68,1.12,1.9-.09,3.62-1.1,5.44-1.65,4.71-1.41,9.81.37,14.02,2.91s7.97,5.85,12.42,7.93c3.96-23.18.76-47.53-9.05-68.91-1.86-4.05-4.14-8.19-7.98-10.44.12,3.69-2.09,7.01-4.37,9.92-6.09,7.75-13.33,14.59-21.41,20.23-1.49-7.3-8.26-12.1-12.57-18.17-4.29-6.04-6.23-13.55-10.9-19.3-6.67-8.21-17.56-11.36-27.85-15.48Z"/>
  <g id="Details">
    <g>
      <path class="cls-1" d="m9.13,147.65c2.77,2.45,4.88,5.53,6.96,8.58,2.69,3.95,5.38,7.9,8.08,11.84,4.4,6.45,8.99,13.58,8.41,21.37"/>
      <path class="cls-1" d="m216.07,51.04c6.93,19.11,9.1,39.93,6.25,60.06"/>
      <path class="cls-1" d="m84.98,16.8c-1.85,12.37,1.35,25.08,6.81,36.34s13.11,21.28,20.7,31.23c10.66-7.64,21.11-15.87,29.06-26.29,7.95-10.43,13.27-23.35,12.43-36.44"/>
      <path class="cls-1" d="m48.52,192.37c10.64,2,20.6,6.74,31.16,9.14,15.44,3.52,31.69,1.94,46.98-2.19,15.29-4.12,29.79-10.7,44.19-17.28"/>
    </g>
  </g>
</svg>