<?xml version="1.0" encoding="UTF-8"?>
<svg id="Rock_-_shirt" data-name="Rock - shirt" xmlns="http://www.w3.org/2000/svg" viewBox="0 0 240 232.34">
  <defs>
    <style>
      .cls-1 {
        fill: none;
        stroke: #a14578;
      }

      .cls-1, .cls-2 {
        stroke-miterlimit: 10;
      }

      .cls-2 {
        fill: #625561;
        stroke: #231f20;
      }
    </style>
  </defs>
  <path id="Shirt" class="cls-2" d="m72.57,47.05c14.11-4.22,28.8-6.51,43.53-6.78,1.37-.03,2.75-.03,4.08.27,1.87.43,20.92,9.72,22.56,10.72,13.33,8.16,9.28,8.04,22.62,16.2-7.69,14-14.26,27.8-21.96,41.8-1.77,3.22-4.71,6.81-4.71,10.48,0,2.86,1.12,5.59,2.29,8.2,3.78,8.45,8.31,16.59,13.93,23.93-8.82,6.29-18.61,11.09-28.34,15.86-3.6,1.77-7.34,3.57-11.35,3.72-2.36.09-4.7-.39-7.01-.87-15.88-3.3-31.87-6.64-46.83-12.88,2.14-6.44,4.29-12.88,6.43-19.32,2.56-7.7,5.15-15.48,5.94-23.56,1.12-11.36-1.33-22.73-2.91-34.03-1.58-11.31-2.22-23.24,1.73-33.74Z"/>
  <g id="Choker">
    <g>
      <path class="cls-2" d="m139.19,7.02c-10.5-1.32-20.91-3.41-30.23-6.4-.98,2.68-2.32,5.24-3.96,7.57,1.08.93,2.65.88,4.05,1.13,1.71.31,3.27,1.12,4.86,1.83,8.05,3.6,17.26,4.53,25.87,2.61-.75-2.15-.96-4.49-.58-6.74Z"/>
      <path class="cls-2" d="m124.44,16.05c-2.09-.22-4.24,1.18-4.44,3.22,0-1-.02-2.03-.45-2.93-.43-.9-1.38-1.63-2.37-1.47-1.38.23-1.94,2.04-1.5,3.37s1.51,2.32,2.35,3.43c1.12,1.48,1.86,3.25,2.14,5.09.45-2.56,1.87-4.94,3.92-6.54.57-.45,1.2-.85,1.63-1.44.43-.59.6-1.44.18-2.03-.32-.45-.91-.64-1.46-.7Z"/>
    </g>
  </g>
  <g id="Bracelet">
    <g>
      <path class="cls-2" d="m237.42,53.76c-.05-.15-.18-.26-.3-.37-4.71-4.03-9.41-8.06-14.12-12.08-.17-.14-.37-.3-.59-.26-.22.04-.33.4.06-.66-1.95,1.64-3.28,4.01-3.66,6.53,5.46,4.13,10.84,8.38,16.12,12.74.79-1.75,1.58-3.51,2.37-5.26.09-.2.18-.43.11-.63Z"/>
      <path class="cls-2" d="m216.83,49.62c.05.78.1,1.56.35,1.34-.39,2.15,1.13,4.13,2.55,5.79l7.48,8.7c.9,1.05,1.81,2.11,2.93,2.93.99-.77.35-2.36-.37-3.39-3.84-5.5-8.18-10.65-12.94-15.37Z"/>
    </g>
  </g>
  <g id="Details">
    <g>
      <path class="cls-1" d="m150.61,56.74c-6.66,10.7-11.94,22.2-16.81,33.82-2.59,6.18-5.1,12.52-5.66,19.2-1.48,17.54,10.53,33.67,11.2,51.25"/>
      <path class="cls-1" d="m76.04,46.64c1.5,9.47,3.54,18.85,6.11,28.09,2.43,8.72,5.35,17.53,4.87,26.57-.33,6.35-2.34,12.48-4.19,18.57-4.24,13.94-7.75,28.1-10.51,42.41"/>
      <path class="cls-1" d="m86.08,86.54c11.83-7.35,24.91-12.69,38.51-15.73,6.24-1.4,12.8-2.3,19-.73"/>
      <path class="cls-1" d="m78.34,58.61c20.9,6.78,39.7,19.91,52.5,38.07-17.81,4.95-34.55,13.74-48.73,25.6"/>
      <path class="cls-1" d="m87.13,97.25c17,6.71,32.32,17.66,43.58,31.59-20.6,3.4-40.28,12.21-56.54,25.3"/>
      <path class="cls-1" d="m81.53,123.98c21.29,7.35,40.99,19.24,57.42,34.64"/>
    </g>
  </g>
</svg>