<?xml version="1.0" encoding="UTF-8"?>
<svg id="Rock_-_hat" data-name="Rock - hat" xmlns="http://www.w3.org/2000/svg" viewBox="0 0 139.5 79.53">
  <defs>
    <style>
      .cls-1 {
        fill: #625561;
        stroke: #231f20;
        stroke-miterlimit: 10;
      }
    </style>
  </defs>
  <path id="Ear_left" data-name="Ear left" class="cls-1" d="m42.46,34.81c-4.69-9.72-4.91-22.22-2.2-32.67,9.14,4.04,17.28,10.33,23.51,18.15-6.45,4.79-12.81,12.9-17.88,19.14-.36-1.02-3.59-3.08-3.43-4.62Z"/>
  <path id="Ear_right" data-name="Ear right" class="cls-1" d="m103.4,19.29c6.79-8.64,18.71-12.89,29.43-10.51-2.51,10.11-7,19.71-13.15,28.11-2.67-8.05-9.2-14.71-16.28-17.6Z"/>
  <path id="Headband" class="cls-1" d="m119.01,33.52c-1.78-6.76-7.1-12.23-13.36-15.32s-13.4-4.03-20.39-3.94c-10.74.14-21.86,2.83-30,9.83-4.74,4.08-8.25,9.42-10.94,15.07-5.25,11.03-7.5,23.48-6.8,35.6,1.52-9.95,3.07-20.02,6.97-29.29s10.46-17.83,19.59-22.06c7.19-3.33,15.36-3.75,23.28-3.47,5.02.17,10.14.63,14.75,2.63,7.52,3.27,12.71,10.18,17.55,16.79.51-1.65,0-3.4-.65-5.83Z"/>
</svg>