<?xml version="1.0" encoding="UTF-8"?>
<svg id="Layer_2" data-name="Layer 2" xmlns="http://www.w3.org/2000/svg" viewBox="0 0 240.52 364.36">
  <defs>
    <style>
      .cls-1 {
        fill: #625561;
        stroke: #231f20;
        stroke-miterlimit: 10;
      }
    </style>
  </defs>
  <g id="Rock_-_pants" data-name="Rock - pants">
    <path id="Skirt" class="cls-1" d="m125.62.77c-9.27,10.1-22.88,15.38-36.5,16.97s-27.38-.2-40.92-2.34c-6.73-1.06-13.47-2.22-19.92-4.43-7.21,24.17-15.6,47.98-25.13,71.32,7.39,4.67,14.57,9.67,21.65,14.53l2.66-6.81c1.47,1.29,3.24,2.22,5.14,2.7l-.56,7.16c9.24,3.5,18.78,6.21,28.48,8.1,1.46.28,3,.54,4.41.06s2.59-1.97,2.19-3.4c1.85,1.81,4.44,2.84,7.03,2.8,1.84-.03,3.75-.56,5.49.03s2.93,3.12,1.49,4.27c13.04,1.47,26.59-2.27,37.04-10.22.04-1.68.07-3.36.11-5.04,1.55-.29,3.05-.89,4.37-1.74-.45,1.6,1.28,3.13,2.94,3.16s3.15-.94,4.53-1.87c5.34-3.61,10.68-7.22,16.02-10.83,3.66-2.47,7.6-5.35,8.56-9.66-1.82-5.93-3.64-11.86-5.45-17.8-2.4-7.83-4.8-15.66-7.37-23.44-3.87-11.71-8.34-23.66-16.26-33.51Z"/>
    <path id="Boot_left" data-name="Boot left" class="cls-1" d="m32.77,308.05c-4.46,8.5-8.92,16.99-13.37,25.49-.65,1.24-1.33,2.52-2.4,3.43-1.38,1.18-3.22,1.61-4.95,2.13-3.07.91-6.04,2.17-8.82,3.77-.81.46-1.65,1-2.06,1.84-.31.64-.34,1.37-.35,2.08-.1,3.8-.2,7.6-.31,11.4-.03,1.14-.02,2.4.76,3.23.65.7,1.66.89,2.61,1.04,9.06,1.42,18.29,1.78,27.43,1.07,2.28-.18,4.61-.44,6.65-1.48,2.08-1.07,3.67-2.87,5.22-4.63,4.96-5.66,9.91-11.33,14.87-16.99.79-6.44.07-12.75-1.54-18.83-1.56-5.88-3.93-11.53-5.27-17.46-3.02-13.41-.56-27.42,2.85-40.74,3.41-13.32,7.78-26.53,8.61-40.25.53-8.76-.39-17.53-1.54-26.23-.07-.51-.15-1.06-.5-1.45-.94-1.03-2.58-.03-3.73.75-4.12,2.8-9.56,2.28-14.5,1.66-.74-.09-1.52-.2-2.12-.65-.63-.47-.95-1.24-1.38-1.9-2.89-4.47-9.62-3.33-14.91-1.55-1.65,14.26-2.06,28.74-.14,42.97.88,6.54,2.25,13,3.27,19.52.95,6.09,1.59,12.22,2.23,18.35,1.15,11.04,2.31,22.08,3.4,33.45Z"/>
    <path id="Boot_right" data-name="Boot right" class="cls-1" d="m122.17,192.31c6.95-3.35,15.03-4.34,22.58-2.76-.22-1.84,1.11-3.59,2.76-4.45s3.55-1.02,5.41-1.16c1.93-.15,4.06-.24,5.57.95,1.42,1.12,1.87,3.03,2.25,4.8,6.51,30.16,17.37,59.18,28.18,88.07,2.14,5.72,4.31,11.5,7.74,16.56,3.03,4.48,6.98,8.3,9.9,12.86,5.03,7.85,7.19,18.06,14.88,23.33,5.47,3.75,13.35,4.67,16.53,10.5,1.22,2.23,1.5,4.84,1.75,7.37.24,2.41.49,4.83,0,7.85-7.4.78-14.85,1.05-22.29.81-2.21-.07-4.47-.2-6.53-1.01-2.32-.92-4.22-2.64-6.15-4.23-8.72-7.19-19.2-12.23-30.26-14.55-1.15-.24-2.35-.47-3.27-1.2-1.17-.92-1.66-2.44-1.99-3.89-3.18-13.93,2.84-28.74-.42-42.65-1.39-5.96-4.42-11.38-7.4-16.72-7.3-13.04-14.61-26.09-23.03-38.44-4.53-6.64-9.41-13.11-12.9-20.36-3.49-7.25-5.53-15.48-3.32-21.68Z"/>
  </g>
</svg>